<?xml version="1.0" encoding="UTF-8" standalone="no"?>
<!-- Created with Inkscape (http://www.inkscape.org/) -->

<svg
   xmlns:dc="http://purl.org/dc/elements/1.1/"
   xmlns:cc="http://creativecommons.org/ns#"
   xmlns:rdf="http://www.w3.org/1999/02/22-rdf-syntax-ns#"
   xmlns:svg="http://www.w3.org/2000/svg"
   xmlns="http://www.w3.org/2000/svg"
   xmlns:xlink="http://www.w3.org/1999/xlink"
   xmlns:sodipodi="http://sodipodi.sourceforge.net/DTD/sodipodi-0.dtd"
   xmlns:inkscape="http://www.inkscape.org/namespaces/inkscape"
   width="210mm"
   height="297mm"
   viewBox="0 0 210 297"
   version="1.1"
   id="svg8"
   inkscape:version="0.92+devel unknown"
   sodipodi:docname="greengoo.svg">
  <defs
     id="defs2">
    <linearGradient
       inkscape:collect="always"
       id="linearGradient8430">
      <stop
         style="stop-color:#ffffff;stop-opacity:1;"
         offset="0"
         id="stop8426" />
      <stop
         style="stop-color:#ffffff;stop-opacity:0;"
         offset="1"
         id="stop8428" />
    </linearGradient>
    <linearGradient
       inkscape:collect="always"
       xlink:href="#linearGradient8430"
       id="linearGradient8432"
       x1="-92.307414"
       y1="-30.481303"
       x2="-89.474831"
       y2="-27.362158"
       gradientUnits="userSpaceOnUse"
       gradientTransform="translate(123.98637,110.43854)" />
    <linearGradient
       inkscape:collect="always"
       xlink:href="#linearGradient8430"
       id="linearGradient8434"
       x1="-94.606253"
       y1="9.5381246"
       x2="-91.484406"
       y2="12.682937"
       gradientUnits="userSpaceOnUse"
       gradientTransform="translate(123.98637,110.43854)" />
    <linearGradient
       inkscape:collect="always"
       xlink:href="#linearGradient8430"
       id="linearGradient8436"
       x1="-67.350437"
       y1="-27.153195"
       x2="-54.978416"
       y2="-15.284502"
       gradientUnits="userSpaceOnUse"
       gradientTransform="translate(123.98637,110.43854)" />
    <linearGradient
       inkscape:collect="always"
       xlink:href="#linearGradient8430"
       id="linearGradient8438"
       x1="-73.96322"
       y1="-50.646949"
       x2="-69.776566"
       y2="-47.323826"
       gradientUnits="userSpaceOnUse"
       gradientTransform="translate(123.98637,110.43854)" />
    <linearGradient
       inkscape:collect="always"
       xlink:href="#linearGradient8430"
       id="linearGradient8440"
       x1="-47.028946"
       y1="-66.723261"
       x2="-43.325096"
       y2="-63.533871"
       gradientUnits="userSpaceOnUse"
       gradientTransform="translate(123.98637,110.43854)" />
    <linearGradient
       inkscape:collect="always"
       xlink:href="#linearGradient8430"
       id="linearGradient8442"
       x1="-28.034399"
       y1="-49.421537"
       x2="-23.738909"
       y2="-44.432793"
       gradientUnits="userSpaceOnUse"
       gradientTransform="translate(123.98637,110.43854)" />
    <linearGradient
       inkscape:collect="always"
       xlink:href="#linearGradient8430"
       id="linearGradient8444"
       x1="-9.8700772"
       y1="-34.068134"
       x2="-8.0634575"
       y2="-31.882437"
       gradientUnits="userSpaceOnUse"
       gradientTransform="translate(123.98637,110.43854)" />
    <linearGradient
       inkscape:collect="always"
       xlink:href="#linearGradient8430"
       id="linearGradient8446"
       x1="-12.913086"
       y1="-12.294825"
       x2="-9.8000908"
       y2="-8.2881613"
       gradientUnits="userSpaceOnUse"
       gradientTransform="translate(123.98637,110.43854)" />
    <linearGradient
       inkscape:collect="always"
       xlink:href="#linearGradient8430"
       id="linearGradient8448"
       x1="-62.745685"
       y1="12.347276"
       x2="-60.761562"
       y2="14.035856"
       gradientUnits="userSpaceOnUse"
       gradientTransform="translate(125.68035,107.86514)" />
    <linearGradient
       inkscape:collect="always"
       xlink:href="#linearGradient8430"
       id="linearGradient8450"
       x1="-37.094787"
       y1="18.802572"
       x2="-33.729523"
       y2="22.398573"
       gradientUnits="userSpaceOnUse"
       gradientTransform="translate(123.98637,110.43854)" />
  </defs>
  <sodipodi:namedview
     id="base"
     pagecolor="#ffffff"
     bordercolor="#666666"
     borderopacity="1.0"
     inkscape:pageopacity="0.0"
     inkscape:pageshadow="2"
     inkscape:zoom="0.76508705"
     inkscape:cx="608.68367"
     inkscape:cy="766.97289"
     inkscape:document-units="mm"
     inkscape:current-layer="layer1"
     inkscape:document-rotation="0"
     showgrid="false"
     inkscape:snap-global="true"
     showguides="true"
     inkscape:guide-bbox="true"
     inkscape:snap-bbox="true"
     inkscape:bbox-nodes="true"
     inkscape:window-width="1366"
     inkscape:window-height="709"
     inkscape:window-x="0"
     inkscape:window-y="0"
     inkscape:window-maximized="1">
    <sodipodi:guide
       position="-92.680083,303.97686"
       orientation="1,0"
       id="guide8452"
       inkscape:locked="false" />
  </sodipodi:namedview>
  <metadata
     id="metadata5">
    <rdf:RDF>
      <cc:Work
         rdf:about="">
        <dc:format>image/svg+xml</dc:format>
        <dc:type
           rdf:resource="http://purl.org/dc/dcmitype/StillImage" />
        <dc:title></dc:title>
      </cc:Work>
    </rdf:RDF>
  </metadata>
  <g
     inkscape:label="Capa 1"
     inkscape:groupmode="layer"
     id="layer1">
    <g
       id="g8487"
       transform="matrix(1.0889079,0,0,1.0889079,37.893488,-9.5574675)"
       style="stroke-width:0.18367026;stroke-miterlimit:4;stroke-dasharray:none;stroke:#ffffff;stroke-opacity:0">
      <g
         transform="matrix(1.0953295,0,0,1.0419544,-7.0220451,-3.4819933)"
         id="g8470"
         style="stroke-width:0.17192621;stroke-miterlimit:4;stroke-dasharray:none;stroke:#ffffff;stroke-opacity:0">
        <path
           style="fill:#00a323;fill-opacity:1;stroke:#ffffff;stroke-width:1.20348349;stroke-miterlimit:4;stroke-dasharray:none;stroke-opacity:0.67117703"
           d="m 89.870805,138.81633 c -2.48419,-0.71997 -4.85462,-3.35951 -5.40714,-6.02099 -0.35279,-1.69938 -0.20516,-2.85413 0.73247,-5.7294 0.92998,-2.85183 1.05817,-6.39299 0.30334,-8.37955 -3.505439,-8.15924 -8.685138,-7.0337 -14.02402,-7.01959 -2.32398,-0.0436 -11.80461,0.0769 -13.18479,0.39083 -5.459519,1.05239 -11.367423,4.67117 -15.028303,7.96933 -1.967185,1.77228 -2.00696,5.31286 -4.259313,6.70487 -2.272403,1.4044 -5.410857,1.577 -7.972193,0.81824 -4.529077,-1.34168 -4.58219,-6.42332 -3.660499,-9.77991 0.606945,-2.21036 3.114946,-3.85024 5.361327,-4.30612 2.343816,-0.47566 4.531741,2.26968 6.902782,1.95681 3.164824,-0.41761 5.952708,-2.66612 8.220838,-4.91247 1.951082,-1.93235 3.589405,-4.37646 4.293821,-7.03061 0.638443,-2.40556 -0.703452,-5.02192 -0.219716,-7.463304 0.475787,-2.401266 0.709563,-4.982914 2.998848,-6.703653 4.151272,-3.120301 6.065962,-12.179944 6.047438,-15.99021 -0.002,-3.624191 -4.122501,-2.021008 -8.026061,-3.932548 -1.77163,-0.867553 -2.79925,-1.566302 -3.53835,-2.405962 -2.51427,-2.856369 -2.51159,-7.127532 0.006,-9.987979 3.22012,-3.658243 8.96126,-3.514702 11.93212,0.29833 0.97875,1.256209 1.4282,2.677693 1.74773,5.527592 1.569314,1.758753 7.434062,3.810836 9.889171,3.13467 1.78667,-0.519401 2.96125,-1.647947 4.07967,-3.919786 0.99851,-2.028243 1.28065,-3.696355 1.01646,-6.009606 -0.15628,-1.368393 -0.55723,-2.432333 -1.96231,-5.20706 -1.68421,-3.325949 -1.76537,-3.572429 -1.75437,-5.328229 0.0145,-2.316736 0.70326,-3.963482 2.36558,-5.655854 1.64609,-1.675851 3.39954,-2.409556 5.76667,-2.412973 3.28505,-0.0047 5.891,1.595394 7.31761,4.49325 0.72662,1.475972 0.85242,2.017279 0.84459,3.634142 -0.011,2.264707 -0.62157,3.670985 -2.72239,6.270028 -2.99099,3.700328 -3.86953,7.260216 -2.66794,10.810648 0.69052,2.040324 1.36856,3.055591 2.39522,3.586499 0.79167,0.409384 2.02236,0.511032 2.76004,0.22796 0.61417,-0.235681 1.37132,-1.851523 1.69953,-3.62698 0.41392,-2.239113 1.15338,-3.701047 2.69824,-5.33451 3.92231,-4.147257 10.563585,-4.206488 14.534575,-0.129627 3.54209,3.636533 3.81282,9.196326 0.64974,13.343344 -1.06997,1.4028 -3.40692,2.811587 -5.77026,3.478483 -2.58398,0.729162 -3.30037,1.226023 -4.11692,2.855348 -2.161045,4.312071 1.58708,13.600957 6.36243,15.767887 1.42381,0.646086 4.7739,0.713335 6.68311,0.134157 3.31543,-1.005772 6.51325,-0.214535 8.56822,2.120024 1.85714,2.109824 2.35338,4.740338 1.38312,7.331769 -0.72565,1.93814 -1.86763,3.21949 -3.64879,4.09415 -1.26217,0.6198 -1.84815,0.7428 -3.50033,0.73477 -2.59428,-0.0126 -4.04206,-0.78362 -6.43703,-3.42795 -2.40427,-2.65461 -4.0129,-3.44933 -6.92443,-3.4209 -1.67346,0.0163 -2.4878,0.17346 -3.889185,0.75037 -6.82983,2.81167 -10.36258,12.81051 -6.63101,18.76796 0.70982,1.13321 2.54826,3.00936 5.08298,5.18722 2.80614,2.41107 3.682195,5.17042 2.68443,8.45531 -0.72489,2.38657 -2.36714,4.17183 -4.60932,5.01074 -1.60227,0.59949 -3.86637,0.7179 -5.37369,0.28104 z"
           id="path8424"
           inkscape:connector-curvature="0"
           sodipodi:nodetypes="ccccccsasaaaaaascsccccccsscscscscccscsccccsccssccccscscc" />
        <path
           style="fill:url(#linearGradient8450);fill-opacity:1;stroke-width:0.17192621;stroke-miterlimit:4;stroke-dasharray:none;stroke:#ffffff;stroke-opacity:0"
           d="m 89.564275,132.42375 c 0.206316,-0.83047 1.429321,-1.39842 1.96476,-1.91823 0.81977,-0.80036 1.5975,-1.45521 1.72828,-1.45521 0.340306,-0.21622 0.472948,-0.55958 0.77805,-0.64432 0.27216,0.1682 0.31728,-0.69035 0.0701,-1.3344 -0.0917,-0.23898 -0.74709,-0.71448 -1.45642,-1.05667 -0.70933,-0.34219 -1.22258,-0.51359 -1.14057,-0.38089 -1.465658,0.65182 -3.227519,0.91578 -4.11815,2.41934 -0.77889,1.38584 -0.62039,3.76939 0.30029,4.51585 0.659308,0.30129 1.945727,0.60513 1.87366,-0.14547 z"
           id="path8422"
           inkscape:connector-curvature="0"
           sodipodi:nodetypes="cccccscccc" />
        <path
           style="fill:url(#linearGradient8446);fill-opacity:1;stroke-width:0.17192621;stroke-miterlimit:4;stroke-dasharray:none;stroke:#ffffff;stroke-opacity:0"
           d="m 113.43289,101.37305 c 0.23018,-0.0883 0.41851,-0.30386 0.41851,-0.47896 0,-0.17509 0.92274,-1.212973 2.05052,-2.306395 2.13962,-2.074423 2.32656,-2.546477 1.27996,-3.232232 -1.09353,-0.71651 -2.37574,-0.796954 -3.6585,-0.229532 -1.68491,0.745318 -2.4501,1.932171 -2.4501,3.800251 0,2.085278 0.89184,3.010098 2.35961,2.446868 z"
           id="path8420"
           inkscape:connector-curvature="0"
           sodipodi:nodetypes="cscccsc" />
        <path
           style="fill:url(#linearGradient8436);fill-opacity:1;stroke-width:0.17192621;stroke-miterlimit:4;stroke-dasharray:none;stroke:#ffffff;stroke-opacity:0"
           d="m 62.902995,97.800716 c 0.3707,-0.09926 0.4998,-0.238239 0.32287,-0.347588 4.07092,-3.161574 15.497644,-18.410103 22.14225,-22.632591 2.44462,-2.217035 4.058813,-2.627609 3.59782,-3.489081 0.644103,-1.169269 -0.90878,-1.882596 -1.48274,-2.205176 -0.89467,-0.502835 -1.33291,-0.569753 -3.07193,-0.469085 -1.65265,0.09567 -2.4685,0.316789 -4.40425,1.193676 -2.88059,1.304901 -2.95711,1.3232 -7.00185,1.674408 -4.53135,0.393462 -6.07477,1.077079 -7.14504,3.164715 -0.26112,0.509323 -0.97598,2.533386 -1.58858,4.497917 -1.4538,4.662091 -2.58599,7.001425 -4.23844,8.757446 -1.87454,1.99204 -2.87081,3.636106 -3.22412,5.320549 -0.2802,1.335823 -0.25551,1.524328 0.33808,2.582172 0.48382,0.862208 0.93139,1.257813 1.83098,1.618416 1.22188,0.4898 2.83189,0.626896 3.92497,0.334222 z"
           id="path8418"
           inkscape:connector-curvature="0"
           sodipodi:nodetypes="cccccccscccccccc" />
        <path
           style="fill:url(#linearGradient8434);fill-opacity:1;stroke-width:0.17192621;stroke-miterlimit:4;stroke-dasharray:none;stroke:#ffffff;stroke-opacity:0"
           d="m 32.047383,122.96327 c 0.238372,-0.3638 0.609253,-0.66146 0.824179,-0.66146 0.552612,-0.19808 0.73986,-0.88719 1.118897,-1.26568 0.400466,-0.39528 0.995779,-1.06217 1.322916,-1.48198 0.327138,-0.4198 0.594796,-0.67311 0.594796,-0.56291 0,0.1102 0.178594,0.0521 0.396875,-0.12901 0.941015,-0.78097 0.234823,-1.92617 -1.471035,-2.38551 -3.03497,-0.81723 -5.958124,1.87429 -5.380363,4.95402 0.19223,1.02467 1.141897,2.19399 1.781859,2.19399 0.208159,0 0.573503,-0.29765 0.811876,-0.66146 z"
           id="path8416"
           inkscape:connector-curvature="0"
           sodipodi:nodetypes="ccccscsssc" />
        <path
           style="fill:url(#linearGradient8442);fill-opacity:1;stroke-width:0.17192621;stroke-miterlimit:4;stroke-dasharray:none;stroke:#ffffff;stroke-opacity:0"
           d="m 101.9889,62.517767 c 0.93087,-2.642998 3.42675,-1.989611 3.47964,-3.727417 -0.0186,-1.338999 -1.75366,-2.324413 -4.09262,-2.324413 -3.215608,0 -5.423958,2.208348 -5.423958,5.423958 0,1.727629 0.50812,2.869311 1.52468,3.42574 2.124215,0.958456 2.510607,-0.994659 4.512258,-2.797868 z"
           id="path8414"
           inkscape:connector-curvature="0"
           sodipodi:nodetypes="ccsscc" />
        <path
           style="fill:url(#linearGradient8438);fill-opacity:1;stroke-width:0.17192621;stroke-miterlimit:4;stroke-dasharray:none;stroke:#ffffff;stroke-opacity:0"
           d="m 52.918616,63.03074 c 1.729505,-1.138413 2.538636,-4.234787 4.126345,-4.643042 0.51864,0.05745 0.29599,-0.631046 -0.44307,-1.370105 -0.78478,-0.784786 -0.9089,-0.819889 -2.53328,-0.716457 -1.5153,0.09649 -1.81357,0.21102 -2.64294,1.014873 -1.09822,1.064439 -1.59054,2.471021 -1.33733,3.820785 0.27097,1.444361 1.04328,1.924162 1.994464,2.170951 0.2841,0.07371 0.590649,-0.115632 0.835811,-0.277005 z"
           id="path8412"
           inkscape:connector-curvature="0"
           sodipodi:nodetypes="sccccccs" />
        <path
           style="fill:url(#linearGradient8440);fill-opacity:1;stroke-width:0.17192621;stroke-miterlimit:4;stroke-dasharray:none;stroke:#ffffff;stroke-opacity:0"
           d="m 79.301625,47.398048 c 0.23019,-0.08833 0.41852,-0.248927 0.41852,-0.356885 0,-0.356371 4.23274,-4.499677 4.26042,-4.170395 0.284925,-0.36259 0.399346,-1.185952 0.32469,-1.816544 -0.16789,-0.437502 -2.01829,-1.170072 -2.93682,-1.162682 -1.04999,0.0084 -2.79198,0.8735 -3.45413,1.715282 -1.28134,1.62896 -1.27486,4.221242 0.0136,5.421581 0.61893,0.576624 0.74558,0.610702 1.37377,0.369643 z"
           id="path8410"
           inkscape:connector-curvature="0"
           sodipodi:nodetypes="csccccccc" />
        <path
           style="fill:#00a323;fill-opacity:1;stroke:#ffffff;stroke-width:1.20348349;stroke-miterlimit:4;stroke-dasharray:none;stroke-opacity:0.67117703"
           d="m 65.134168,125.82757 c -2.14574,-0.51836 -3.44865,-1.99103 -3.70941,-4.19275 -0.32364,-2.73265 1.84873,-5.08244 4.6987,-5.08244 2.08076,0 3.80205,1.27675 4.47652,3.32041 1.07458,3.25602 -2.14003,6.75821 -5.46581,5.95478 z"
           id="path8408"
           inkscape:connector-curvature="0"
           sodipodi:nodetypes="ssscs" />
        <path
           style="fill:url(#linearGradient8448);fill-opacity:1;stroke-width:0.17192621;stroke-miterlimit:4;stroke-dasharray:none;stroke:#ffffff;stroke-opacity:0"
           d="m 64.245648,122.09302 c 0.773302,-0.27862 0.772597,-0.80196 1.31516,-1.3073 0.41765,0 1.81687,-1.65619 1.68642,-1.99614 -0.22065,-0.575 -1.82866,-0.9267 -2.75715,-0.60303 -1.3823,0.48187 -2.05337,2.6819 -1.12946,3.70281 0.48775,0.53897 0.88503,0.63038 0.88503,0.20366 z"
           id="path8406"
           inkscape:connector-curvature="0"
           sodipodi:nodetypes="cccccc" />
        <path
           style="fill:#00a323;fill-opacity:1;stroke:#ffffff;stroke-width:1.20348349;stroke-miterlimit:4;stroke-dasharray:none;stroke-opacity:0.67117703"
           d="m 33.992528,87.902214 c -3.524276,-1.31531 -5.244539,-4.932563 -4.12417,-8.672023 0.972007,-3.244268 4.967371,-5.200306 8.475292,-4.149307 1.284273,0.384776 3.245586,2.07567 3.903506,3.365299 1.655092,3.24425 0.27932,7.403476 -3.00274,9.07786 -1.353791,0.690652 -3.919585,0.875408 -5.251888,0.378171 z"
           id="path8404"
           inkscape:connector-curvature="0"
           sodipodi:nodetypes="cscssc" />
        <path
           style="fill:url(#linearGradient8432);fill-opacity:1;stroke-width:0.17192621;stroke-miterlimit:4;stroke-dasharray:none;stroke:#ffffff;stroke-opacity:0"
           d="m 36.780727,79.796812 c 0.144571,0 0.421023,-0.208359 0.614338,-0.46302 1.328536,-1.750127 -1.346004,-3.165364 -3.790126,-2.005553 -1.206554,0.572548 -1.92474,1.770862 -1.925989,3.213571 -0.0012,1.362988 0.355936,2.117895 1.140786,2.411497 0.49031,0.18342 0.814734,-0.03965 2.138076,-1.470133 0.858033,-0.9275 1.678345,-1.686362 1.822915,-1.686362 z"
           id="path8402"
           inkscape:connector-curvature="0"
           sodipodi:nodetypes="sssccss" />
        <path
           style="fill:#00a323;fill-opacity:1;stroke:#ffffff;stroke-width:1.20348349;stroke-miterlimit:4;stroke-dasharray:none;stroke-opacity:0.67117703"
           d="m 115.51889,81.811611 c -1.80632,-0.860448 -2.77812,-2.420006 -2.77812,-4.458385 0,-3.578987 4.27389,-5.768651 7.31032,-3.745336 2.62067,1.746269 2.61508,6.04183 -0.0102,7.8407 -1.23375,0.845373 -3.18121,1.001712 -4.522,0.363021 z"
           id="path8400"
           inkscape:connector-curvature="0"
           sodipodi:nodetypes="ssccs" />
        <path
           style="fill:url(#linearGradient8444);fill-opacity:1;stroke-width:0.17192621;stroke-miterlimit:4;stroke-dasharray:none;stroke:#ffffff;stroke-opacity:0"
           d="m 115.97148,78.189685 c 0.93197,-1.098551 2.14177,-2.243688 2.3704,-2.243688 0.14109,0 0.21848,-0.266775 0.17198,-0.592834 -0.10776,-0.755597 -1.31963,-1.349641 -2.3097,-1.132186 -1.70928,0.37542 -2.72297,2.730021 -1.64109,3.811902 0.66401,0.664013 0.95101,0.695966 1.40841,0.156806 z"
           id="path8396"
           inkscape:connector-curvature="0"
           sodipodi:nodetypes="cscscc" />
      </g>
    </g>
  </g>
</svg>
