<?xml version="1.0" encoding="UTF-8" standalone="no"?>
<!-- Created with Inkscape (http://www.inkscape.org/) -->

<svg
   xmlns:dc="http://purl.org/dc/elements/1.1/"
   xmlns:cc="http://creativecommons.org/ns#"
   xmlns:rdf="http://www.w3.org/1999/02/22-rdf-syntax-ns#"
   xmlns:svg="http://www.w3.org/2000/svg"
   xmlns="http://www.w3.org/2000/svg"
   xmlns:xlink="http://www.w3.org/1999/xlink"
   xmlns:sodipodi="http://sodipodi.sourceforge.net/DTD/sodipodi-0.dtd"
   xmlns:inkscape="http://www.inkscape.org/namespaces/inkscape"
   width="210mm"
   height="297mm"
   viewBox="0 0 210 297"
   version="1.1"
   id="svg8"
   inkscape:version="0.92+devel unknown"
   sodipodi:docname="greengoo.svg">
  <defs
     id="defs2">
    <linearGradient
       inkscape:collect="always"
       id="linearGradient8430">
      <stop
         style="stop-color:#ffffff;stop-opacity:1;"
         offset="0"
         id="stop8426" />
      <stop
         style="stop-color:#ffffff;stop-opacity:0;"
         offset="1"
         id="stop8428" />
    </linearGradient>
    <linearGradient
       inkscape:collect="always"
       xlink:href="#linearGradient8430"
       id="linearGradient8432"
       x1="-92.307414"
       y1="-30.481303"
       x2="-89.474831"
       y2="-27.362158"
       gradientUnits="userSpaceOnUse"
       gradientTransform="translate(123.98637,110.43854)" />
    <linearGradient
       inkscape:collect="always"
       xlink:href="#linearGradient8430"
       id="linearGradient8434"
       x1="-94.606253"
       y1="9.5381246"
       x2="-91.484406"
       y2="12.682937"
       gradientUnits="userSpaceOnUse"
       gradientTransform="translate(123.98637,110.43854)" />
    <linearGradient
       inkscape:collect="always"
       xlink:href="#linearGradient8430"
       id="linearGradient8436"
       x1="-67.350437"
       y1="-27.153195"
       x2="-54.978416"
       y2="-15.284502"
       gradientUnits="userSpaceOnUse"
       gradientTransform="translate(123.98637,110.43854)" />
    <linearGradient
       inkscape:collect="always"
       xlink:href="#linearGradient8430"
       id="linearGradient8438"
       x1="-73.96322"
       y1="-50.646949"
       x2="-69.776566"
       y2="-47.323826"
       gradientUnits="userSpaceOnUse"
       gradientTransform="translate(123.98637,110.43854)" />
    <linearGradient
       inkscape:collect="always"
       xlink:href="#linearGradient8430"
       id="linearGradient8440"
       x1="-47.028946"
       y1="-66.723261"
       x2="-43.325096"
       y2="-63.533871"
       gradientUnits="userSpaceOnUse"
       gradientTransform="translate(123.98637,110.43854)" />
    <linearGradient
       inkscape:collect="always"
       xlink:href="#linearGradient8430"
       id="linearGradient8442"
       x1="-28.034399"
       y1="-49.421537"
       x2="-23.738909"
       y2="-44.432793"
       gradientUnits="userSpaceOnUse"
       gradientTransform="translate(123.98637,110.43854)" />
    <linearGradient
       inkscape:collect="always"
       xlink:href="#linearGradient8430"
       id="linearGradient8444"
       x1="-9.8700772"
       y1="-34.068134"
       x2="-8.0634575"
       y2="-31.882437"
       gradientUnits="userSpaceOnUse"
       gradientTransform="translate(123.98637,110.43854)" />
    <linearGradient
       inkscape:collect="always"
       xlink:href="#linearGradient8430"
       id="linearGradient8446"
       x1="-12.913086"
       y1="-12.294825"
       x2="-9.8000908"
       y2="-8.2881613"
       gradientUnits="userSpaceOnUse"
       gradientTransform="translate(123.98637,110.43854)" />
    <linearGradient
       inkscape:collect="always"
       xlink:href="#linearGradient8430"
       id="linearGradient8448"
       x1="-62.745685"
       y1="12.347276"
       x2="-60.761562"
       y2="14.035856"
       gradientUnits="userSpaceOnUse"
       gradientTransform="translate(125.68035,107.86514)" />
    <linearGradient
       inkscape:collect="always"
       xlink:href="#linearGradient8430"
       id="linearGradient8450"
       x1="-37.094787"
       y1="18.802572"
       x2="-33.729523"
       y2="22.398573"
       gradientUnits="userSpaceOnUse"
       gradientTransform="translate(123.98637,110.43854)" />
  </defs>
  <sodipodi:namedview
     id="base"
     pagecolor="#ffffff"
     bordercolor="#666666"
     borderopacity="1.0"
     inkscape:pageopacity="0.0"
     inkscape:pageshadow="2"
     inkscape:zoom="1.1575153"
     inkscape:cx="378.32753"
     inkscape:cy="869.74755"
     inkscape:document-units="mm"
     inkscape:current-layer="layer1"
     inkscape:document-rotation="0"
     showgrid="false"
     inkscape:snap-global="true"
     showguides="true"
     inkscape:guide-bbox="true"
     inkscape:snap-bbox="true"
     inkscape:bbox-nodes="true"
     inkscape:window-width="1366"
     inkscape:window-height="709"
     inkscape:window-x="0"
     inkscape:window-y="0"
     inkscape:window-maximized="1"
     inkscape:snap-nodes="false">
    <sodipodi:guide
       position="-92.680083,303.97686"
       orientation="1,0"
       id="guide8452"
       inkscape:locked="false" />
  </sodipodi:namedview>
  <metadata
     id="metadata5">
    <rdf:RDF>
      <cc:Work
         rdf:about="">
        <dc:format>image/svg+xml</dc:format>
        <dc:type
           rdf:resource="http://purl.org/dc/dcmitype/StillImage" />
        <dc:title />
      </cc:Work>
    </rdf:RDF>
  </metadata>
  <g
     inkscape:label="Capa 1"
     inkscape:groupmode="layer"
     id="layer1">
    <g
       id="g8487"
       transform="matrix(0.2321477,0,0,0.2321477,43.841265,53.146303)"
       style="stroke:#ffffff;stroke-width:0.18367025;stroke-miterlimit:4;stroke-dasharray:none;stroke-opacity:0"
       inkscape:export-xdpi="82.756561"
       inkscape:export-ydpi="82.756561">
      <g
         transform="matrix(1.0953295,0,0,1.0419544,-7.0220451,-3.4819933)"
         id="g8470"
         style="stroke:#ffffff;stroke-width:0.17192622;stroke-miterlimit:4;stroke-dasharray:none;stroke-opacity:0">
        <path
           style="fill:#00a323;fill-opacity:1;stroke:#ffffff;stroke-width:1.20348346;stroke-miterlimit:4;stroke-dasharray:none;stroke-opacity:0.67117705"
           d="m 89.870805,138.81633 c -2.48419,-0.71997 -4.85462,-3.35951 -5.40714,-6.02099 -0.35279,-1.69938 -0.20516,-2.85413 0.73247,-5.7294 0.92998,-2.85183 1.05817,-6.39299 0.30334,-8.37955 -3.505439,-8.15924 -8.685138,-7.0337 -14.02402,-7.01959 -2.32398,-0.0436 -11.80461,0.0769 -13.18479,0.39083 -5.459519,1.05239 -11.367423,4.67117 -15.028303,7.96933 -1.967185,1.77228 -2.00696,5.31286 -4.259313,6.70487 -2.272403,1.4044 -5.410857,1.577 -7.972193,0.81824 -4.529077,-1.34168 -4.58219,-6.42332 -3.660499,-9.77991 0.606945,-2.21036 3.114946,-3.85024 5.361327,-4.30612 2.343816,-0.47566 4.531741,2.26968 6.902782,1.95681 3.164824,-0.41761 5.952708,-2.66612 8.220838,-4.91247 1.951082,-1.93235 3.589405,-4.37646 4.293821,-7.03061 0.638443,-2.40556 -0.703452,-5.02192 -0.219716,-7.463304 0.475787,-2.401266 0.709563,-4.982914 2.998848,-6.703653 4.151272,-3.120301 6.065962,-12.179944 6.047438,-15.99021 -0.002,-3.624191 -4.122501,-2.021008 -8.026061,-3.932548 -1.77163,-0.867553 -2.79925,-1.566302 -3.53835,-2.405962 -2.51427,-2.856369 -2.51159,-7.127532 0.006,-9.987979 3.22012,-3.658243 8.96126,-3.514702 11.93212,0.29833 0.97875,1.256209 1.4282,2.677693 1.74773,5.527592 1.569314,1.758753 7.434062,3.810836 9.889171,3.13467 1.78667,-0.519401 2.96125,-1.647947 4.07967,-3.919786 0.99851,-2.028243 1.28065,-3.696355 1.01646,-6.009606 -0.15628,-1.368393 -0.55723,-2.432333 -1.96231,-5.20706 -1.68421,-3.325949 -1.76537,-3.572429 -1.75437,-5.328229 0.0145,-2.316736 0.70326,-3.963482 2.36558,-5.655854 1.64609,-1.675851 3.39954,-2.409556 5.76667,-2.412973 3.28505,-0.0047 5.891,1.595394 7.31761,4.49325 0.72662,1.475972 0.85242,2.017279 0.84459,3.634142 -0.011,2.264707 -0.62157,3.670985 -2.72239,6.270028 -2.99099,3.700328 -3.86953,7.260216 -2.66794,10.810648 0.69052,2.040324 1.36856,3.055591 2.39522,3.586499 0.79167,0.409384 2.02236,0.511032 2.76004,0.22796 0.61417,-0.235681 1.37132,-1.851523 1.69953,-3.62698 0.41392,-2.239113 1.15338,-3.701047 2.69824,-5.33451 3.92231,-4.147257 10.563585,-4.206488 14.534575,-0.129627 3.54209,3.636533 3.81282,9.196326 0.64974,13.343344 -1.06997,1.4028 -3.40692,2.811587 -5.77026,3.478483 -2.58398,0.729162 -3.30037,1.226023 -4.11692,2.855348 -2.161045,4.312071 1.58708,13.600957 6.36243,15.767887 1.42381,0.646086 4.7739,0.713335 6.68311,0.134157 3.31543,-1.005772 6.51325,-0.214535 8.56822,2.120024 1.85714,2.109824 2.35338,4.740338 1.38312,7.331769 -0.72565,1.93814 -1.86763,3.21949 -3.64879,4.09415 -1.26217,0.6198 -1.84815,0.7428 -3.50033,0.73477 -2.59428,-0.0126 -4.04206,-0.78362 -6.43703,-3.42795 -2.40427,-2.65461 -4.0129,-3.44933 -6.92443,-3.4209 -1.67346,0.0163 -2.4878,0.17346 -3.889185,0.75037 -6.82983,2.81167 -10.36258,12.81051 -6.63101,18.76796 0.70982,1.13321 2.54826,3.00936 5.08298,5.18722 2.80614,2.41107 3.682195,5.17042 2.68443,8.45531 -0.72489,2.38657 -2.36714,4.17183 -4.60932,5.01074 -1.60227,0.59949 -3.86637,0.7179 -5.37369,0.28104 z"
           id="path8424"
           inkscape:connector-curvature="0"
           sodipodi:nodetypes="ccccccsasaaaaaascsccccccsscscscscccscsccccsccssccccscscc" />
        <path
           style="fill:url(#linearGradient8450);fill-opacity:1;stroke:#ffffff;stroke-width:0.17192622;stroke-miterlimit:4;stroke-dasharray:none;stroke-opacity:0"
           d="m 89.564275,132.42375 c 0.206316,-0.83047 1.429321,-1.39842 1.96476,-1.91823 0.81977,-0.80036 1.5975,-1.45521 1.72828,-1.45521 0.340306,-0.21622 0.472948,-0.55958 0.77805,-0.64432 0.27216,0.1682 0.31728,-0.69035 0.0701,-1.3344 -0.0917,-0.23898 -0.74709,-0.71448 -1.45642,-1.05667 -0.70933,-0.34219 -1.22258,-0.51359 -1.14057,-0.38089 -1.465658,0.65182 -3.227519,0.91578 -4.11815,2.41934 -0.77889,1.38584 -0.62039,3.76939 0.30029,4.51585 0.659308,0.30129 1.945727,0.60513 1.87366,-0.14547 z"
           id="path8422"
           inkscape:connector-curvature="0"
           sodipodi:nodetypes="cccccscccc" />
        <path
           style="fill:url(#linearGradient8446);fill-opacity:1;stroke:#ffffff;stroke-width:0.17192622;stroke-miterlimit:4;stroke-dasharray:none;stroke-opacity:0"
           d="m 113.43289,101.37305 c 0.23018,-0.0883 0.41851,-0.30386 0.41851,-0.47896 0,-0.17509 0.92274,-1.212973 2.05052,-2.306395 2.13962,-2.074423 2.32656,-2.546477 1.27996,-3.232232 -1.09353,-0.71651 -2.37574,-0.796954 -3.6585,-0.229532 -1.68491,0.745318 -2.4501,1.932171 -2.4501,3.800251 0,2.085278 0.89184,3.010098 2.35961,2.446868 z"
           id="path8420"
           inkscape:connector-curvature="0"
           sodipodi:nodetypes="cscccsc" />
        <path
           style="fill:url(#linearGradient8436);fill-opacity:1;stroke:#ffffff;stroke-width:0.17192622;stroke-miterlimit:4;stroke-dasharray:none;stroke-opacity:0"
           d="m 62.902995,97.800716 c 0.3707,-0.09926 0.4998,-0.238239 0.32287,-0.347588 4.07092,-3.161574 15.497644,-18.410103 22.14225,-22.632591 2.44462,-2.217035 4.058813,-2.627609 3.59782,-3.489081 0.644103,-1.169269 -0.90878,-1.882596 -1.48274,-2.205176 -0.89467,-0.502835 -1.33291,-0.569753 -3.07193,-0.469085 -1.65265,0.09567 -2.4685,0.316789 -4.40425,1.193676 -2.88059,1.304901 -2.95711,1.3232 -7.00185,1.674408 -4.53135,0.393462 -6.07477,1.077079 -7.14504,3.164715 -0.26112,0.509323 -0.97598,2.533386 -1.58858,4.497917 -1.4538,4.662091 -2.58599,7.001425 -4.23844,8.757446 -1.87454,1.99204 -2.87081,3.636106 -3.22412,5.320549 -0.2802,1.335823 -0.25551,1.524328 0.33808,2.582172 0.48382,0.862208 0.93139,1.257813 1.83098,1.618416 1.22188,0.4898 2.83189,0.626896 3.92497,0.334222 z"
           id="path8418"
           inkscape:connector-curvature="0"
           sodipodi:nodetypes="cccccccscccccccc" />
        <path
           style="fill:url(#linearGradient8434);fill-opacity:1;stroke:#ffffff;stroke-width:0.17192622;stroke-miterlimit:4;stroke-dasharray:none;stroke-opacity:0"
           d="m 32.047383,122.96327 c 0.238372,-0.3638 0.609253,-0.66146 0.824179,-0.66146 0.552612,-0.19808 0.73986,-0.88719 1.118897,-1.26568 0.400466,-0.39528 0.995779,-1.06217 1.322916,-1.48198 0.327138,-0.4198 0.594796,-0.67311 0.594796,-0.56291 0,0.1102 0.178594,0.0521 0.396875,-0.12901 0.941015,-0.78097 0.234823,-1.92617 -1.471035,-2.38551 -3.03497,-0.81723 -5.958124,1.87429 -5.380363,4.95402 0.19223,1.02467 1.141897,2.19399 1.781859,2.19399 0.208159,0 0.573503,-0.29765 0.811876,-0.66146 z"
           id="path8416"
           inkscape:connector-curvature="0"
           sodipodi:nodetypes="ccccscsssc" />
        <path
           style="fill:url(#linearGradient8442);fill-opacity:1;stroke:#ffffff;stroke-width:0.17192622;stroke-miterlimit:4;stroke-dasharray:none;stroke-opacity:0"
           d="m 101.9889,62.517767 c 0.93087,-2.642998 3.42675,-1.989611 3.47964,-3.727417 -0.0186,-1.338999 -1.75366,-2.324413 -4.09262,-2.324413 -3.215608,0 -5.423958,2.208348 -5.423958,5.423958 0,1.727629 0.50812,2.869311 1.52468,3.42574 2.124215,0.958456 2.510607,-0.994659 4.512258,-2.797868 z"
           id="path8414"
           inkscape:connector-curvature="0"
           sodipodi:nodetypes="ccsscc" />
        <path
           style="fill:url(#linearGradient8438);fill-opacity:1;stroke:#ffffff;stroke-width:0.17192622;stroke-miterlimit:4;stroke-dasharray:none;stroke-opacity:0"
           d="m 52.918616,63.03074 c 1.729505,-1.138413 2.538636,-4.234787 4.126345,-4.643042 0.51864,0.05745 0.29599,-0.631046 -0.44307,-1.370105 -0.78478,-0.784786 -0.9089,-0.819889 -2.53328,-0.716457 -1.5153,0.09649 -1.81357,0.21102 -2.64294,1.014873 -1.09822,1.064439 -1.59054,2.471021 -1.33733,3.820785 0.27097,1.444361 1.04328,1.924162 1.994464,2.170951 0.2841,0.07371 0.590649,-0.115632 0.835811,-0.277005 z"
           id="path8412"
           inkscape:connector-curvature="0"
           sodipodi:nodetypes="sccccccs" />
        <path
           style="fill:url(#linearGradient8440);fill-opacity:1;stroke:#ffffff;stroke-width:0.17192622;stroke-miterlimit:4;stroke-dasharray:none;stroke-opacity:0"
           d="m 79.301625,47.398048 c 0.23019,-0.08833 0.41852,-0.248927 0.41852,-0.356885 0,-0.356371 4.23274,-4.499677 4.26042,-4.170395 0.284925,-0.36259 0.399346,-1.185952 0.32469,-1.816544 -0.16789,-0.437502 -2.01829,-1.170072 -2.93682,-1.162682 -1.04999,0.0084 -2.79198,0.8735 -3.45413,1.715282 -1.28134,1.62896 -1.27486,4.221242 0.0136,5.421581 0.61893,0.576624 0.74558,0.610702 1.37377,0.369643 z"
           id="path8410"
           inkscape:connector-curvature="0"
           sodipodi:nodetypes="csccccccc" />
        <path
           style="fill:#00a323;fill-opacity:1;stroke:#ffffff;stroke-width:1.20348346;stroke-miterlimit:4;stroke-dasharray:none;stroke-opacity:0.67117705"
           d="m 65.134168,125.82757 c -2.14574,-0.51836 -3.44865,-1.99103 -3.70941,-4.19275 -0.32364,-2.73265 1.84873,-5.08244 4.6987,-5.08244 2.08076,0 3.80205,1.27675 4.47652,3.32041 1.07458,3.25602 -2.14003,6.75821 -5.46581,5.95478 z"
           id="path8408"
           inkscape:connector-curvature="0"
           sodipodi:nodetypes="ssscs" />
        <path
           style="fill:url(#linearGradient8448);fill-opacity:1;stroke:#ffffff;stroke-width:0.17192622;stroke-miterlimit:4;stroke-dasharray:none;stroke-opacity:0"
           d="m 64.245648,122.09302 c 0.773302,-0.27862 0.772597,-0.80196 1.31516,-1.3073 0.41765,0 1.81687,-1.65619 1.68642,-1.99614 -0.22065,-0.575 -1.82866,-0.9267 -2.75715,-0.60303 -1.3823,0.48187 -2.05337,2.6819 -1.12946,3.70281 0.48775,0.53897 0.88503,0.63038 0.88503,0.20366 z"
           id="path8406"
           inkscape:connector-curvature="0"
           sodipodi:nodetypes="cccccc" />
        <path
           style="fill:#00a323;fill-opacity:1;stroke:#ffffff;stroke-width:1.20348346;stroke-miterlimit:4;stroke-dasharray:none;stroke-opacity:0.67117705"
           d="m 33.992528,87.902214 c -3.524276,-1.31531 -5.244539,-4.932563 -4.12417,-8.672023 0.972007,-3.244268 4.967371,-5.200306 8.475292,-4.149307 1.284273,0.384776 3.245586,2.07567 3.903506,3.365299 1.655092,3.24425 0.27932,7.403476 -3.00274,9.07786 -1.353791,0.690652 -3.919585,0.875408 -5.251888,0.378171 z"
           id="path8404"
           inkscape:connector-curvature="0"
           sodipodi:nodetypes="cscssc" />
        <path
           style="fill:url(#linearGradient8432);fill-opacity:1;stroke:#ffffff;stroke-width:0.17192622;stroke-miterlimit:4;stroke-dasharray:none;stroke-opacity:0"
           d="m 36.780727,79.796812 c 0.144571,0 0.421023,-0.208359 0.614338,-0.46302 1.328536,-1.750127 -1.346004,-3.165364 -3.790126,-2.005553 -1.206554,0.572548 -1.92474,1.770862 -1.925989,3.213571 -0.0012,1.362988 0.355936,2.117895 1.140786,2.411497 0.49031,0.18342 0.814734,-0.03965 2.138076,-1.470133 0.858033,-0.9275 1.678345,-1.686362 1.822915,-1.686362 z"
           id="path8402"
           inkscape:connector-curvature="0"
           sodipodi:nodetypes="sssccss" />
        <path
           style="fill:#00a323;fill-opacity:1;stroke:#ffffff;stroke-width:1.20348346;stroke-miterlimit:4;stroke-dasharray:none;stroke-opacity:0.67117705"
           d="m 115.51889,81.811611 c -1.80632,-0.860448 -2.77812,-2.420006 -2.77812,-4.458385 0,-3.578987 4.27389,-5.768651 7.31032,-3.745336 2.62067,1.746269 2.61508,6.04183 -0.0102,7.8407 -1.23375,0.845373 -3.18121,1.001712 -4.522,0.363021 z"
           id="path8400"
           inkscape:connector-curvature="0"
           sodipodi:nodetypes="ssccs" />
        <path
           style="fill:url(#linearGradient8444);fill-opacity:1;stroke:#ffffff;stroke-width:0.17192622;stroke-miterlimit:4;stroke-dasharray:none;stroke-opacity:0"
           d="m 115.97148,78.189685 c 0.93197,-1.098551 2.14177,-2.243688 2.3704,-2.243688 0.14109,0 0.21848,-0.266775 0.17198,-0.592834 -0.10776,-0.755597 -1.31963,-1.349641 -2.3097,-1.132186 -1.70928,0.37542 -2.72297,2.730021 -1.64109,3.811902 0.66401,0.664013 0.95101,0.695966 1.40841,0.156806 z"
           id="path8396"
           inkscape:connector-curvature="0"
           sodipodi:nodetypes="cscscc" />
      </g>
    </g>
    <g
       id="g8315"
       transform="translate(-6.6313598,-0.26811721)"
       inkscape:export-xdpi="82.756561"
       inkscape:export-ydpi="82.756561">
      <path
         inkscape:connector-curvature="0"
         id="path8303"
         d="m 86.67847,62.100128 -0.02344,0.002 -0.02148,0.002 -0.414062,0.05469 -0.02539,0.0039 -0.02344,0.0059 -0.396484,0.08984 -0.02539,0.0059 -0.02344,0.0078 -0.376953,0.125 -0.02344,0.0078 -0.02344,0.0098 -0.357422,0.15625 -0.02148,0.0098 -0.02344,0.01172 -0.333984,0.185547 -0.02148,0.01367 -0.02148,0.01367 -0.310547,0.214843 -0.02148,0.01563 -0.01953,0.01563 -0.285156,0.242188 -0.02148,0.01953 -0.01953,0.01953 -0.257813,0.269531 -0.01758,0.01758 -0.01563,0.02148 -0.228516,0.291016 -0.01758,0.01953 -0.01367,0.02344 -0.199218,0.314453 -0.01563,0.02344 -0.01172,0.02539 -0.166016,0.335937 -0.01172,0.02539 -0.0098,0.02539 -0.130859,0.355469 -0.0098,0.02539 -0.0059,0.02344 -0.09766,0.373047 -0.0078,0.02734 -0.0039,0.0293 -0.05859,0.388672 -0.0039,0.02539 -0.002,0.02734 -0.01953,0.404297 v 0.02539 0.02539 l 0.01953,0.40625 0.002,0.02344 0.0039,0.02539 0.05469,0.390625 0.002,0.02344 0.0059,0.02344 0.08789,0.376953 0.0059,0.02539 0.0098,0.02539 0.123047,0.357421 0.0078,0.02344 0.0098,0.02148 0.152344,0.337891 0.01172,0.02539 0.01172,0.02148 0.183593,0.318359 0.01367,0.02344 0.01563,0.02344 0.212891,0.294922 0.01563,0.01953 0.01758,0.01953 0.238281,0.269531 0.01758,0.01953 0.01758,0.01758 0.263671,0.246094 0.01953,0.01953 0.02344,0.01563 0.28711,0.216797 0.02148,0.01758 0.02344,0.01367 0.310547,0.1875 0.02148,0.01367 0.02148,0.0098 0.328125,0.158203 0.02539,0.01172 0.02539,0.0098 0.34961,0.126953 0.02539,0.0098 0.0293,0.0059 0.367188,0.08984 0.02344,0.0059 0.02344,0.0039 0.380859,0.05664 0.02539,0.0039 0.02734,0.002 0.396485,0.01953 h 0.02539 0.02539 l 0.246094,-0.01172 0.02344,-0.002 0.02148,-0.002 0.246093,-0.0332 0.02148,-0.0039 0.01953,-0.0039 0.244141,-0.05273 0.02148,-0.0039 0.01953,-0.0078 0.240235,-0.07227 0.02148,-0.0059 0.01953,-0.0078 0.173828,-0.06836 v 0.136719 h 0.529297 1.429688 0.529297 V 70.145389 66.293827 65.76453 h -0.529297 -0.892578 l 0.287109,-0.353516 1.099609,-1.355468 0.339844,-0.417969 -0.423828,-0.332031 -0.308594,-0.242188 -0.01953,-0.01758 -0.02344,-0.01367 -0.341797,-0.216797 -0.01953,-0.01172 -0.02148,-0.01172 -0.367187,-0.189454 -0.01953,-0.0098 -0.01953,-0.0078 -0.39072,-0.162423 -0.02344,-0.0098 -0.02344,-0.0078 -0.408203,-0.126953 -0.01758,-0.0059 -0.02148,-0.0039 -0.417968,-0.0957 -0.02148,-0.0059 -0.02344,-0.002 -0.423828,-0.05859 -0.02344,-0.0039 -0.02344,-0.002 -0.421875,-0.01953 h -0.02539 -0.02344 z m 32.08203,0 -0.0234,0.002 -0.0215,0.002 -0.41406,0.05469 -0.0254,0.0039 -0.0234,0.0059 -0.39649,0.08984 -0.0254,0.0059 -0.0234,0.0078 -0.37695,0.125 -0.0234,0.0078 -0.0234,0.0098 -0.35742,0.15625 -0.0215,0.0098 -0.0234,0.01172 -0.33398,0.185547 -0.0215,0.01367 -0.0215,0.01367 -0.31055,0.214843 -0.0215,0.01563 -0.0195,0.01563 -0.28711,0.242188 -0.0215,0.01758 -0.0195,0.02148 -0.25781,0.269531 -0.0176,0.01758 -0.0156,0.02148 -0.22852,0.291016 -0.0176,0.02148 -0.0156,0.02344 -0.19726,0.314454 -0.0137,0.02344 -0.0117,0.02344 -0.16602,0.335937 -0.0117,0.02344 -0.01,0.02539 -0.13281,0.355469 -0.01,0.02734 -0.006,0.02734 -0.0703,0.277344 -0.0781,-0.183594 -0.008,-0.02148 -0.0117,-0.01953 -0.0957,-0.179688 -0.0137,-0.02539 -0.0156,-0.02539 -0.11328,-0.166016 -0.0176,-0.02344 -0.0176,-0.02148 -0.12891,-0.150391 -0.0195,-0.02344 -0.0215,-0.01953 -0.14453,-0.134765 -0.0215,-0.01953 -0.0215,-0.01758 -0.15625,-0.117187 -0.0234,-0.01563 -0.0234,-0.01563 -0.16992,-0.101563 -0.0254,-0.01367 -0.0254,-0.01172 -0.1836,-0.08398 -0.0254,-0.01172 -0.0273,-0.0098 -0.19726,-0.06641 -0.0234,-0.0078 -0.0234,-0.0059 -0.20703,-0.04883 -0.0254,-0.0059 -0.0254,-0.0039 -0.21875,-0.0293 -0.0234,-0.002 -0.0234,-0.002 -0.22852,-0.0098 h -0.0254 -0.0254 l -0.30469,0.01563 -0.0312,0.002 -0.0293,0.0059 -0.2871,0.04883 -0.0332,0.0059 -0.0293,0.0078 -0.26954,0.08008 -0.0352,0.01172 -0.0352,0.01563 -0.24804,0.113281 -0.0293,0.01172 -0.006,0.0039 v -0.248047 h -0.5293 -1.88477 -0.52929 v 0.529297 1.617187 l -0.004,-0.0098 -0.0937,-0.261719 -0.008,-0.02539 -0.0117,-0.02344 -0.11524,-0.244141 -0.0117,-0.02539 -0.0156,-0.02344 -0.13672,-0.224609 -0.0137,-0.02539 -0.0176,-0.02148 -0.1582,-0.205078 -0.0176,-0.02148 -0.0176,-0.01953 -0.17774,-0.1875 -0.0215,-0.02148 -0.0215,-0.01953 -0.19921,-0.167968 -0.0215,-0.01758 -0.0234,-0.01563 -0.2168,-0.146484 -0.0234,-0.01563 -0.0254,-0.01367 -0.23438,-0.125 -0.0234,-0.01367 -0.0254,-0.0098 -0.2539,-0.103516 -0.0234,-0.0098 -0.0234,-0.0078 -0.26758,-0.08008 -0.0234,-0.0059 -0.0215,-0.0039 -0.28516,-0.05859 -0.0234,-0.0059 -0.0234,-0.002 -0.30078,-0.03516 -0.0215,-0.002 -0.0234,-0.002 -0.31445,-0.0098 h -0.0195 -0.0215 l -0.33594,0.01563 -0.0215,0.002 -0.0234,0.0039 -0.31836,0.04297 -0.0215,0.002 -0.0215,0.0039 -0.30078,0.06641 -0.0273,0.0059 -0.0254,0.0098 -0.2832,0.09375 -0.0234,0.0078 -0.0234,0.0098 -0.26563,0.117187 -0.0273,0.01172 -0.0234,0.01367 -0.24414,0.140625 -0.0234,0.01367 -0.0215,0.01563 -0.22656,0.162109 -0.0234,0.01563 -0.0215,0.01953 -0.20508,0.183594 -0.0215,0.01953 -0.0195,0.02148 -0.18164,0.203125 -0.0176,0.02148 -0.0176,0.02148 -0.16211,0.22461 -0.0176,0.02539 -0.0137,0.02539 -0.13672,0.242188 -0.0117,0.02148 -0.0117,0.02344 -0.0293,0.06641 -0.10742,-0.226563 -0.0117,-0.02539 -0.0156,-0.02344 -0.13672,-0.224609 -0.0137,-0.02539 -0.0176,-0.02148 -0.1582,-0.205078 -0.0176,-0.02148 -0.0176,-0.01953 -0.17774,-0.1875 -0.0215,-0.02148 -0.0215,-0.01953 -0.19921,-0.167968 -0.0215,-0.01758 -0.0234,-0.01563 -0.2168,-0.146484 -0.0234,-0.01563 -0.0254,-0.01367 -0.23438,-0.125 -0.0234,-0.01367 -0.0254,-0.0098 -0.253903,-0.103516 -0.02344,-0.0098 -0.02344,-0.0078 -0.267578,-0.08008 -0.02344,-0.0059 -0.02148,-0.0039 -0.285156,-0.05859 -0.02344,-0.0059 -0.02344,-0.002 -0.300782,-0.03516 -0.02148,-0.002 -0.02344,-0.002 -0.314453,-0.0098 h -0.01953 -0.02148 l -0.335938,0.01563 -0.02148,0.002 -0.02344,0.0039 -0.318359,0.04297 -0.02148,0.002 -0.02148,0.0039 -0.300781,0.06641 -0.02734,0.0059 -0.02539,0.0098 -0.283203,0.09375 -0.02344,0.0078 -0.02344,0.0098 -0.265624,0.117187 -0.02734,0.01172 -0.02344,0.01367 -0.24414,0.140625 -0.02344,0.01367 -0.02148,0.01563 -0.226563,0.162109 -0.02344,0.01563 -0.02148,0.01953 -0.205078,0.183594 -0.02148,0.01953 -0.01953,0.02148 -0.181641,0.203125 -0.01758,0.02148 -0.01758,0.02148 -0.01953,0.02734 v -0.751953 -0.5625 l -0.560547,0.03516 -0.294922,0.01758 -0.0332,0.002 -0.03125,0.0039 -0.277344,0.05078 -0.0332,0.0078 -0.0332,0.0098 -0.259766,0.08398 -0.0332,0.01172 -0.03125,0.01367 -0.244141,0.115235 -0.0098,0.0039 v -0.248047 h -0.529297 -1.884766 -0.529297 v 0.529297 5.724609 0.529297 h 0.529297 1.884766 0.529297 V 70.144927 67.27188 l 0.01172,-0.06836 0.0293,-0.09961 0.02539,-0.06641 0.0293,-0.05469 0.04883,-0.07031 0.04883,-0.05469 0.06836,-0.06055 0.04102,-0.0293 0.183594,-0.0918 0.220703,-0.0625 0.240234,-0.02539 0.25,0.0078 -0.002,0.01563 -0.03906,0.308594 -0.002,0.02148 -0.002,0.02344 -0.01367,0.322265 v 0.02148 0.02344 l 0.01367,0.320313 0.002,0.02539 0.0039,0.02539 0.04297,0.306641 0.0039,0.02539 0.0059,0.02539 0.07031,0.289062 0.0059,0.02539 0.0078,0.02539 0.0957,0.273437 0.0098,0.02539 0.01172,0.02344 0.121094,0.257813 0.01172,0.02734 0.01563,0.02539 0.146484,0.238281 0.01563,0.02344 0.01563,0.02148 0.167969,0.21875 0.01758,0.02148 0.01953,0.02148 0.191406,0.201172 0.01953,0.02148 0.02344,0.01953 0.214844,0.179688 0.02148,0.01758 0.02148,0.01563 0.234374,0.158203 0.02344,0.01367 0.02344,0.01367 0.253906,0.136719 0.02344,0.01172 0.02344,0.0098 0.273437,0.113281 0.02344,0.0098 0.02344,0.0078 0.291016,0.08984 0.02344,0.0078 0.02539,0.0039 0.308594,0.06445 0.02148,0.0059 0.02344,0.002 0.324218,0.03906 0.01953,0.002 0.02148,0.002 0.339844,0.01367 h 0.02344 0.02148 l 0.394531,-0.01758 0.02734,-0.002 0.02539,-0.0039 0.376953,-0.05469 0.02734,-0.0039 0.02539,-0.0059 0.357422,-0.08984 0.0293,-0.0078 0.02734,-0.0098 0.337896,-0.126953 0.0273,-0.01172 0.0273,-0.01367 0.31836,-0.162109 0.0273,-0.01367 0.0273,-0.01758 0.30078,-0.201172 0.0234,-0.01563 0.0234,-0.01953 0.27929,-0.236329 0.0234,-0.01953 0.0195,-0.02148 0.25977,-0.275391 0.19922,-0.210937 0.0449,0.07422 0.0156,0.02344 0.0156,0.02148 0.16797,0.21875 0.0176,0.02148 0.0195,0.02148 0.1914,0.201172 0.0195,0.02148 0.0234,0.01953 0.21485,0.179688 0.0215,0.01758 0.0215,0.01563 0.23437,0.158203 0.0234,0.01367 0.0234,0.01367 0.25391,0.136719 0.0234,0.01172 0.0234,0.0098 0.27344,0.113281 0.0234,0.0098 0.0234,0.0078 0.29101,0.08984 0.0234,0.0078 0.0254,0.0039 0.30859,0.06445 0.0215,0.0059 0.0234,0.002 0.32422,0.03906 0.0195,0.002 0.0215,0.002 0.33985,0.01367 h 0.0234 0.0215 l 0.39453,-0.01758 0.0273,-0.002 0.0254,-0.0039 0.37695,-0.05469 0.0273,-0.0039 0.0254,-0.0059 0.35742,-0.08984 0.0293,-0.0078 0.0273,-0.0098 0.33789,-0.126953 0.0273,-0.01172 0.0273,-0.01367 0.31836,-0.162109 0.0273,-0.01367 0.0273,-0.01758 0.30078,-0.201172 0.0234,-0.01563 0.0234,-0.01953 0.2793,-0.236329 0.0234,-0.01953 0.0195,-0.02148 0.25977,-0.275391 0.14062,-0.150391 v 0.886719 0.529297 h 0.5293 1.88476 0.5293 v -0.529297 -2.982422 l 0.0254,-0.134765 0.043,-0.125 0.0664,-0.115235 0.0586,-0.07422 0.0801,-0.06445 0.084,-0.04492 0.11524,-0.0332 0.11523,-0.01172 0.12305,0.01172 0.0859,0.02344 0.0606,0.0332 0.0566,0.04883 0.0449,0.05859 0.0371,0.08008 0.0293,0.117188 0.0119,0.160105 v 3.052734 0.529297 h 0.52929 1.87305 0.5293 v -0.529297 -2 l 0.004,0.01367 0.0117,0.02344 0.15429,0.33789 0.01,0.02148 0.0117,0.02148 0.1836,0.318359 0.0137,0.02344 0.0156,0.02148 0.21093,0.294922 0.0156,0.02148 0.0195,0.02148 0.24024,0.269531 0.0156,0.01953 0.0176,0.01563 0.26367,0.246094 0.0195,0.01953 0.0234,0.01563 0.28711,0.216797 0.0215,0.01563 0.0215,0.01563 0.30859,0.1875 0.0234,0.01367 0.0234,0.0098 0.33008,0.158203 0.0234,0.01172 0.0254,0.0098 0.34961,0.126953 0.0254,0.0098 0.0293,0.0059 0.36719,0.08984 0.0234,0.0059 0.0234,0.0039 0.38086,0.05664 0.0254,0.0039 0.0273,0.002 0.39648,0.01953 h 0.0254 0.0254 l 0.2461,-0.01172 0.0234,-0.002 0.0215,-0.002 0.24609,-0.0332 0.0215,-0.0039 0.0195,-0.0039 0.24414,-0.05273 0.0215,-0.0039 0.0195,-0.0078 0.24024,-0.07227 0.0215,-0.0059 0.0195,-0.0078 0.17383,-0.06836 v 0.136719 h 0.52929 1.42774 0.52929 v -0.529297 -1.490234 l 0.01,0.02734 0.0117,0.02539 0.12305,0.259766 0.0117,0.02344 0.0137,0.02344 0.14648,0.242187 0.0156,0.02539 0.0176,0.02344 0.16993,0.220703 0.0176,0.02344 0.0195,0.01953 0.19336,0.203125 0.0195,0.01953 0.0215,0.01953 0.21484,0.181641 0.0215,0.01758 0.0234,0.01563 0.23633,0.160156 0.0234,0.01563 0.0254,0.01367 0.25781,0.136718 0.0215,0.01172 0.0215,0.0098 0.27539,0.115234 0.0254,0.0098 0.0254,0.0078 0.29492,0.08984 0.0215,0.0078 0.0234,0.0039 0.3125,0.06641 0.0234,0.0059 0.0234,0.002 0.33008,0.03906 0.0215,0.002 0.0195,0.002 0.3457,0.01367 h 0.0215 0.0215 l 0.34571,-0.01367 0.0195,-0.002 0.0215,-0.002 0.33008,-0.03906 0.0234,-0.002 0.0234,-0.0059 0.3125,-0.06641 0.0234,-0.0039 0.0215,-0.0078 0.29492,-0.08984 0.0254,-0.0078 0.0234,-0.0098 0.27734,-0.115234 0.0234,-0.0098 0.0215,-0.01172 0.25781,-0.136718 0.0234,-0.01172 0.0234,-0.01563 0.23828,-0.160156 0.0254,-0.01563 0.0215,-0.01953 0.21485,-0.181641 0.0215,-0.01758 0.0176,-0.01953 0.19531,-0.203126 0.0215,-0.02148 0.0176,-0.02344 0.16992,-0.220703 0.0176,-0.02344 0.0156,-0.02539 0.14649,-0.242187 0.0137,-0.02344 0.0117,-0.02344 0.12109,-0.255859 0.11719,0.251953 0.0137,0.02734 0.0137,0.02344 0.14648,0.242187 0.0156,0.02539 0.0176,0.02344 0.16993,0.220703 0.0176,0.02344 0.0195,0.01953 0.19335,0.203125 0.0195,0.01953 0.0215,0.01953 0.21485,0.181641 0.0215,0.01953 0.0254,0.01563 0.23828,0.160156 0.0215,0.01563 0.0234,0.01172 0.25586,0.136718 0.0234,0.01172 0.0215,0.0098 0.27539,0.115234 0.0254,0.0098 0.0254,0.0078 0.29492,0.08984 0.0215,0.0078 0.0234,0.0039 0.3125,0.06641 0.0234,0.0059 0.0234,0.002 0.33008,0.03906 0.0215,0.002 0.0195,0.002 0.3457,0.01367 h 0.0215 0.0215 l 0.34571,-0.01367 0.0195,-0.002 0.0215,-0.002 0.33007,-0.03906 0.0234,-0.002 0.0234,-0.0059 0.3125,-0.06641 0.0234,-0.0039 0.0195,-0.0078 0.29688,-0.08984 0.0273,-0.0078 0.0254,-0.0098 0.27539,-0.115234 0.0215,-0.0098 0.0215,-0.01172 0.25781,-0.136718 0.0234,-0.01172 0.0234,-0.01563 0.23828,-0.160156 0.0234,-0.01563 0.0215,-0.01758 0.2168,-0.181641 0.0234,-0.01953 0.0195,-0.02148 0.19336,-0.203125 0.0195,-0.01953 0.0156,-0.02148 0.17187,-0.220703 0.0195,-0.02344 0.0156,-0.02734 0.14649,-0.242187 0.0137,-0.02344 0.0117,-0.02344 0.12304,-0.259766 0.0117,-0.02344 0.008,-0.02539 0.0977,-0.275391 0.01,-0.02734 0.008,-0.02734 0.0703,-0.294922 0.006,-0.02539 0.002,-0.02539 0.043,-0.308594 0.004,-0.02539 0.002,-0.02539 0.0137,-0.324219 v -0.02148 -0.02148 l -0.0137,-0.322265 -0.002,-0.02539 -0.004,-0.02539 -0.043,-0.308593 -0.004,-0.02734 -0.006,-0.02539 -0.0703,-0.291015 -0.006,-0.02539 -0.01,-0.02734 -0.0977,-0.27539 -0.008,-0.02539 -0.0117,-0.02344 -0.12304,-0.259766 -0.0117,-0.02539 -0.0156,-0.02344 -0.14649,-0.240234 -0.0156,-0.02539 -0.0176,-0.02344 -0.17187,-0.220703 -0.0176,-0.02344 -0.0195,-0.01953 -0.19336,-0.201172 -0.0195,-0.01953 -0.0215,-0.01953 -0.2168,-0.181641 -0.0215,-0.01758 -0.0234,-0.01563 -0.23828,-0.160156 -0.0234,-0.01563 -0.0234,-0.01172 -0.25781,-0.136718 -0.0215,-0.01172 -0.0215,-0.0098 -0.27539,-0.115234 -0.0254,-0.0098 -0.0273,-0.0078 -0.29688,-0.08984 -0.0195,-0.0078 -0.0234,-0.0039 -0.3125,-0.06641 -0.0234,-0.0059 -0.0234,-0.002 -0.33007,-0.03906 -0.0215,-0.002 -0.0195,-0.002 -0.34571,-0.01367 h -0.0215 -0.0215 l -0.3457,0.01367 -0.0195,0.002 -0.0215,0.002 -0.33008,0.03906 -0.0234,0.002 -0.0234,0.0059 -0.3125,0.06641 -0.0234,0.0039 -0.0215,0.0078 -0.29492,0.08984 -0.0254,0.0078 -0.0254,0.0098 -0.27539,0.115234 -0.0215,0.0098 -0.0234,0.01172 -0.25586,0.136718 -0.0234,0.01172 -0.0215,0.01563 -0.23828,0.160156 -0.0254,0.01563 -0.0215,0.01953 -0.21485,0.18164 -0.0215,0.01758 -0.0176,0.01953 -0.19335,0.201172 -0.0215,0.02148 -0.0176,0.02344 -0.16993,0.220703 -0.0176,0.02148 -0.0137,0.02539 -0.14648,0.240234 -0.0156,0.02539 -0.0137,0.02734 -0.11719,0.251953 -0.12109,-0.255859 -0.0117,-0.02539 -0.0156,-0.02344 -0.14649,-0.240234 -0.0137,-0.02539 -0.0176,-0.02148 -0.16992,-0.220703 -0.0195,-0.02539 -0.0215,-0.02148 -0.19531,-0.201172 -0.0176,-0.01758 -0.0195,-0.01758 -0.21484,-0.18164 -0.0215,-0.01953 -0.0254,-0.01563 -0.23828,-0.160156 -0.0234,-0.01563 -0.0234,-0.01172 -0.25782,-0.136718 -0.0215,-0.01172 -0.0234,-0.0098 -0.27734,-0.115234 -0.0234,-0.0098 -0.0254,-0.0078 -0.29492,-0.08984 -0.0215,-0.0078 -0.0234,-0.0039 -0.3125,-0.06641 -0.0234,-0.0059 -0.0234,-0.002 -0.33008,-0.03906 -0.0215,-0.002 -0.0195,-0.002 -0.3457,-0.01367 h -0.0215 -0.0215 l -0.34571,0.01367 -0.0195,0.002 -0.0215,0.002 -0.33007,0.03906 -0.0234,0.002 -0.0234,0.0059 -0.3125,0.06641 -0.0234,0.0039 -0.0215,0.0078 -0.29493,0.08984 -0.0254,0.0078 -0.0254,0.0098 -0.27539,0.115234 -0.0215,0.0098 -0.0215,0.01172 -0.25781,0.136718 -0.0254,0.01367 -0.0234,0.01563 -0.23633,0.160156 -0.0234,0.01563 -0.0215,0.01758 -0.21484,0.18164 -0.0215,0.01758 -0.0176,0.01953 -0.19336,0.201172 -0.0215,0.02148 -0.0176,0.02344 -0.16992,0.220703 -0.0176,0.02148 -0.0137,0.02539 -0.14649,0.240234 -0.0156,0.02344 -0.0117,0.02539 -0.12304,0.259766 -0.0117,0.02539 -0.01,0.02734 v -0.142578 h -0.5293 -0.89258 l 0.28711,-0.353516 1.10156,-1.355468 0.33985,-0.417969 -0.42383,-0.332031 -0.3086,-0.242188 -0.0195,-0.01758 -0.0234,-0.01367 -0.34179,-0.216797 -0.0195,-0.01172 -0.0215,-0.01172 -0.36719,-0.189454 -0.0195,-0.0098 -0.0195,-0.0078 -0.39062,-0.162109 -0.0234,-0.0098 -0.0234,-0.0078 -0.40821,-0.126953 -0.0176,-0.0059 -0.0215,-0.0039 -0.41797,-0.0957 -0.0215,-0.0059 -0.0234,-0.002 -0.42382,-0.05859 -0.0234,-0.0039 -0.0234,-0.002 -0.42188,-0.01953 h -0.0254 -0.0234 z m -31.408202,2.691407 0.210938,0.03516 0.203125,0.05273 0.230468,0.08594 0.0098,0.0039 0.166016,0.08008 0.0078,0.0039 0.205078,0.121094 0.189453,0.136719 0.1875,0.164062 0.332032,0.289063 h -0.638672 -0.529297 v 0.529297 1.470703 l -0.07227,0.06055 -0.130859,0.08789 -0.09766,0.05078 -0.0078,0.0039 -0.160156,0.06445 -0.136719,0.03906 -0.136719,0.02344 -0.121093,0.0078 -0.171875,-0.0098 -0.15625,-0.02539 -0.125,-0.0332 -0.119141,-0.04492 -0.146484,-0.07813 -0.01172,-0.0059 -0.09961,-0.06641 -0.101562,-0.08203 -0.123047,-0.123047 -0.0059,-0.0059 -0.07031,-0.08594 -0.08984,-0.136719 -0.07813,-0.144531 -0.0059,-0.01172 -0.04883,-0.121094 -0.05273,-0.162109 -0.03906,-0.169922 -0.02344,-0.179688 -0.0078,-0.183593 0.0098,-0.19336 0.02344,-0.164062 0.03125,-0.136719 0.0039,-0.0098 0.05664,-0.171875 0.0625,-0.136718 0.08008,-0.138672 0.08789,-0.125 0.0957,-0.109375 0.113281,-0.105469 0.115235,-0.08789 0.144531,-0.08984 0.111328,-0.05469 0.162109,-0.05859 0.138672,-0.03711 0.15625,-0.02148 0.1875,-0.01172 z m 32.082032,0 0.20508,0.0332 0.21094,0.05664 0.20898,0.07813 0.22852,0.107422 0.006,0.0039 0.15625,0.0918 0.01,0.0059 0.19531,0.142578 0.1875,0.164062 0.33203,0.289063 h -0.63875 -0.52929 v 0.529297 1.470703 l -0.0723,0.06055 -0.13086,0.08789 -0.0977,0.05078 -0.008,0.0039 -0.16016,0.06445 -0.13672,0.03906 -0.13672,0.02344 -0.12109,0.0078 -0.17188,-0.0098 -0.15625,-0.02539 -0.125,-0.0332 -0.11914,-0.04492 -0.14648,-0.07813 -0.0117,-0.0059 -0.0996,-0.06641 -0.11133,-0.08984 -0.10156,-0.103516 -0.0898,-0.109375 -0.0859,-0.126953 -0.0762,-0.142578 -0.0527,-0.123047 -0.004,-0.01563 -0.0527,-0.162109 -0.0391,-0.169922 -0.0234,-0.179688 -0.008,-0.183593 0.01,-0.19336 0.0234,-0.164062 0.0312,-0.136719 0.004,-0.0098 0.0566,-0.171875 0.0625,-0.136718 0.0801,-0.138672 0.0879,-0.125 0.0957,-0.109375 0.11328,-0.105469 0.11523,-0.08789 0.14454,-0.08984 0.11132,-0.05469 0.16211,-0.05859 0.13868,-0.03711 0.15625,-0.02148 0.1875,-0.01172 z m 6.86719,1.638672 0.12304,0.03711 0.11329,0.06836 0.0957,0.08789 0.0781,0.111328 0.0742,0.164063 0.043,0.177734 0.0156,0.222656 -0.0176,0.228516 -0.043,0.18164 -0.0703,0.158204 -0.0801,0.115234 -0.0996,0.0918 -0.10938,0.06445 -0.12305,0.03906 -0.16406,0.01563 -0.1582,-0.01367 -0.11719,-0.03906 -0.11719,-0.06836 -0.0957,-0.08984 -0.0801,-0.111328 -0.0684,-0.16211 -0.043,-0.18164 -0.0176,-0.228516 0.0156,-0.222656 0.0469,-0.1875 0.0644,-0.148438 0.082,-0.117187 0.10157,-0.0957 0.0996,-0.05859 0.1289,-0.04102 0.1582,-0.01367 z m 6.75781,0 0.12305,0.03711 0.11328,0.06836 0.0957,0.08789 0.0781,0.111328 0.0742,0.164063 0.043,0.177734 0.0156,0.222656 -0.0176,0.228516 -0.043,0.18164 -0.0703,0.158204 -0.0801,0.115234 -0.0996,0.0918 -0.10938,0.06445 -0.12304,0.03906 -0.16407,0.01563 -0.1582,-0.01367 -0.11719,-0.03906 -0.11523,-0.06836 -0.0957,-0.08789 -0.0801,-0.113281 -0.0684,-0.16211 -0.043,-0.18164 -0.0176,-0.228516 0.0156,-0.222656 0.0469,-0.1875 0.0644,-0.148438 0.082,-0.11914 0.0996,-0.09375 0.0996,-0.05859 0.12891,-0.04102 0.1582,-0.01367 z m -25.0332,2.376953 -0.17188,-0.154297 -0.9375,-0.84375 0.86524,-0.208985 0.24414,-0.05859 z m -6.75586,-1.154297 0.002,0.02539 0.004,0.02539 0.043,0.306641 0.004,0.02539 0.006,0.02539 0.0703,0.289062 0.006,0.02539 0.008,0.02539 0.0664,0.1875 -0.86719,-0.779297 0.6582,-0.158203 z m -2.175784,0.539062 -0.126953,0.03711 -0.140626,0.02539 -0.09375,0.0059 0.457032,-0.109375 z m 6.304684,0 -0.12695,0.03711 -0.14062,0.02539 -0.0937,0.0059 0.45703,-0.109375 z m 5.0625,6.658203 -0.20898,0.01953 -0.0488,0.0059 -0.0469,0.01172 -0.19141,0.05469 -0.0508,0.01563 -0.0469,0.02344 -0.16992,0.08789 -0.0508,0.02734 -0.043,0.03516 -0.14453,0.119141 -0.041,0.0332 -0.0332,0.04102 -0.11914,0.146484 -0.0371,0.04492 -0.0254,0.05273 -0.0859,0.171875 -0.0234,0.04492 -0.0137,0.04687 -0.0547,0.19336 -0.0137,0.04687 -0.004,0.04883 -0.0195,0.21289 -0.004,0.04883 0.004,0.04883 0.0195,0.210937 0.006,0.04883 0.0117,0.04687 0.0547,0.191407 0.0137,0.04883 0.0234,0.04297 0.0859,0.171875 0.0254,0.05273 0.0371,0.04492 0.11914,0.146484 0.0332,0.04102 0.004,0.0039 h -0.36328 v 0.529297 5.726562 0.529297 h 0.52929 1.875 0.5293 V 83.73883 78.012268 77.482971 h -0.39453 l 0.004,-0.0039 0.0332,-0.04102 0.11914,-0.146484 0.0371,-0.04492 0.0254,-0.05273 0.0859,-0.171875 0.0234,-0.04297 0.0137,-0.04883 0.0547,-0.191407 0.0117,-0.04687 0.006,-0.04883 0.0195,-0.210937 0.004,-0.04883 -0.004,-0.04883 -0.0195,-0.21289 -0.004,-0.04883 -0.0137,-0.04687 -0.0547,-0.19336 -0.0137,-0.04687 -0.0234,-0.04492 -0.0859,-0.171875 -0.0254,-0.05273 -0.0371,-0.04492 -0.11914,-0.146484 -0.0332,-0.04102 -0.041,-0.0332 -0.14453,-0.119141 -0.043,-0.03516 -0.0508,-0.02734 -0.16992,-0.08789 -0.0469,-0.02344 -0.0508,-0.01563 -0.19141,-0.05469 -0.0469,-0.01172 -0.0488,-0.0059 -0.20898,-0.01953 -0.0488,-0.0039 z m -23.7832,0.84375 -0.02344,0.002 -0.02148,0.002 -0.414062,0.05469 -0.02539,0.0039 -0.02344,0.0059 -0.396484,0.08984 -0.02539,0.0059 -0.02344,0.0078 -0.376953,0.125 -0.02344,0.0078 -0.02344,0.0098 -0.357422,0.15625 -0.02148,0.0098 -0.02344,0.01172 -0.333984,0.185547 -0.02148,0.01367 -0.02148,0.01367 -0.310547,0.214843 -0.02148,0.01563 -0.01953,0.01563 -0.285156,0.242188 -0.02148,0.01953 -0.01953,0.01953 -0.257813,0.269531 -0.01758,0.01758 -0.01563,0.02148 -0.228516,0.291016 -0.01758,0.01953 -0.01367,0.02344 -0.199218,0.314453 -0.01563,0.02344 -0.01172,0.02539 -0.166016,0.335937 -0.01172,0.02539 -0.0098,0.02539 -0.130859,0.355469 -0.0098,0.02539 -0.0059,0.02344 -0.09766,0.373047 -0.0078,0.02734 -0.0039,0.0293 -0.05859,0.388672 -0.0039,0.02539 -0.002,0.02734 -0.01953,0.404297 v 0.02539 0.02539 l 0.01953,0.40625 0.002,0.02344 0.0039,0.02539 0.05469,0.390625 0.002,0.02344 0.0059,0.02344 0.08789,0.376953 0.0059,0.02539 0.0098,0.02539 0.123047,0.357421 0.0078,0.02344 0.0098,0.02148 0.152344,0.337891 0.01172,0.02539 0.01367,0.02344 0.183593,0.316406 0.01172,0.02344 0.01563,0.02148 0.212891,0.294922 0.01563,0.01953 0.01563,0.01953 0.238281,0.271484 0.01953,0.01953 0.01953,0.01953 0.263671,0.244141 0.01953,0.01758 0.02148,0.01563 0.28711,0.216797 0.01953,0.01563 0.02344,0.01367 0.310547,0.189453 0.02344,0.01563 0.02539,0.01172 0.328125,0.15625 0.02148,0.0098 0.02539,0.0098 0.34961,0.126953 0.02539,0.0098 0.0293,0.0059 0.367188,0.08984 0.02344,0.0059 0.02344,0.0039 0.380859,0.05664 0.02539,0.0039 0.02734,0.002 0.396485,0.01953 h 0.02539 0.02539 l 0.246094,-0.01172 0.02344,-0.002 0.02148,-0.002 0.246093,-0.0332 0.02148,-0.0039 0.01953,-0.0039 0.244141,-0.05273 0.02148,-0.0039 0.01953,-0.0078 0.240235,-0.07227 0.02148,-0.0059 0.01953,-0.0078 0.173828,-0.06836 v 0.138672 h 0.529297 1.429688 0.529297 v -0.529297 -1.421875 l 0.08203,0.203125 0.0078,0.02344 0.01172,0.01953 0.125,0.244141 0.01172,0.02344 0.01367,0.02344 0.144531,0.224609 0.01563,0.02344 0.01758,0.02148 0.166016,0.205078 0.01758,0.02148 0.01758,0.01953 0.183594,0.185547 0.02148,0.01953 0.02344,0.01953 0.201172,0.162109 0.02344,0.01953 0.02539,0.01563 0.21875,0.138672 0.02344,0.01367 0.02539,0.01367 0.236328,0.117188 0.02539,0.01172 0.02734,0.01172 0.251953,0.0918 0.02734,0.0078 0.02734,0.0078 0.267578,0.06641 0.02539,0.0059 0.02539,0.0039 0.28125,0.04102 0.02539,0.0039 0.02539,0.002 0.294921,0.01367 h 0.02734 0.02539 l 0.259765,-0.01367 0.02734,-0.002 0.02734,-0.0039 0.248047,-0.03906 0.0293,-0.0059 0.0293,-0.0078 0.232421,-0.06445 0.03125,-0.0078 0.02734,-0.01172 0.214844,-0.08789 v 0.169922 h 0.529297 1.882812 0.529297 v -0.529297 -5.726562 -0.529297 h -0.529297 -1.882812 -0.529297 v 0.185547 l -0.02148,-0.0078 -0.226562,-0.08984 -0.0293,-0.01172 -0.0293,-0.0078 -0.240234,-0.06445 -0.02734,-0.0078 -0.0293,-0.0039 -0.255859,-0.03906 -0.03125,-0.0039 -0.0293,-0.002 -0.267578,-0.0098 h -0.02148 -0.02344 l -0.289063,0.01367 -0.02344,0.002 -0.02539,0.0039 -0.27539,0.03906 -0.02734,0.0039 -0.02539,0.0059 -0.261718,0.06445 -0.02734,0.0059 -0.02539,0.0098 -0.248047,0.08984 -0.02734,0.0098 -0.02734,0.01367 -0.230469,0.113281 -0.02539,0.01172 -0.02344,0.01563 -0.214844,0.136718 -0.02344,0.01563 -0.02148,0.01758 -0.199218,0.158203 -0.02539,0.01758 -0.02148,0.02148 -0.179688,0.179688 -0.01758,0.01953 -0.01758,0.02148 -0.16211,0.199219 -0.01953,0.02344 -0.01563,0.02344 -0.142578,0.220703 -0.01367,0.02344 -0.01367,0.02344 -0.121093,0.238281 -0.0098,0.02148 -0.0098,0.02344 -0.07422,0.1875 v -0.03906 h -0.529297 -0.892578 l 0.287109,-0.353516 1.099609,-1.353515 0.339844,-0.417969 -0.423828,-0.332031 -0.308594,-0.242188 -0.01953,-0.01758 -0.02344,-0.01367 -0.341797,-0.216797 -0.01953,-0.01172 -0.02148,-0.01172 -0.367187,-0.189454 -0.01953,-0.0098 -0.01953,-0.0078 -0.390639,-0.162605 -0.02344,-0.0098 -0.02344,-0.0078 -0.408203,-0.126953 -0.01758,-0.0059 -0.02148,-0.0039 -0.417968,-0.0957 -0.02148,-0.0059 -0.02344,-0.002 -0.423828,-0.05859 -0.02344,-0.0039 -0.02344,-0.002 -0.421875,-0.01953 h -0.02539 -0.02344 z m 15.34375,1.730469 -0.0312,0.002 -0.0312,0.0059 -0.2832,0.04883 -0.0332,0.0059 -0.0332,0.0098 -0.26563,0.08203 -0.0332,0.0098 -0.0293,0.01367 -0.24414,0.111329 -0.0215,0.0098 v -0.240234 h -0.5293 -1.873043 -0.529297 v 0.529297 5.726562 0.529297 h 0.529297 1.873043 0.5293 v -0.529297 -2.816406 -0.0098 l 0.0137,-0.189453 0.0391,-0.162109 0.0586,-0.136719 0.0605,-0.09375 0.0742,-0.07227 0.0879,-0.05469 0.10938,-0.03711 0.12304,-0.01367 0.10157,0.0098 0.084,0.02344 0.0605,0.0332 0.0469,0.04102 0.0371,0.05078 0.0352,0.08008 0.0312,0.130859 0.01,0.146485 v 0.0059 3.064453 0.529297 h 0.52929 1.88477 0.52929 v -0.529297 -2.816406 -0.0098 l 0.0156,-0.197265 0.0332,-0.152344 0.0566,-0.132812 0.0703,-0.109376 0.0684,-0.06641 0.084,-0.05273 0.0996,-0.0332 0.12696,-0.01563 0.10156,0.0098 0.0898,0.02539 0.0547,0.0293 0.0449,0.03906 0.041,0.05859 0.0332,0.07422 0.0312,0.132812 0.0117,0.146485 v 0.01367 3.05664 0.529297 h 0.5293 1.88281 0.5293 v -0.529297 -3.609375 -0.0098 -0.01172 l -0.01,-0.246094 -0.002,-0.01953 -0.002,-0.01953 -0.0273,-0.234375 -0.002,-0.02539 -0.006,-0.02344 -0.0469,-0.220703 -0.004,-0.02148 -0.006,-0.02148 -0.0625,-0.208985 -0.008,-0.02539 -0.0117,-0.02539 -0.0801,-0.193359 -0.01,-0.02344 -0.0117,-0.02148 -0.0957,-0.179688 -0.0137,-0.02539 -0.0156,-0.02539 -0.11329,-0.166016 -0.0156,-0.02148 -0.0176,-0.02148 -0.12695,-0.150391 -0.0176,-0.02148 -0.0215,-0.01953 -0.14062,-0.134765 -0.0215,-0.02148 -0.0254,-0.01953 -0.15625,-0.117187 -0.0215,-0.01563 -0.0234,-0.01367 -0.16797,-0.101563 -0.0254,-0.01563 -0.0254,-0.01172 -0.18164,-0.08398 -0.0254,-0.01172 -0.0273,-0.0098 -0.19532,-0.06641 -0.0234,-0.0078 -0.0234,-0.0059 -0.20508,-0.04883 -0.0254,-0.0059 -0.0273,-0.002 -0.21679,-0.0293 -0.0234,-0.0039 -0.0234,-0.002 -0.22657,-0.0098 h -0.0273 l -0.0273,0.002 -0.33789,0.01953 -0.0352,0.002 -0.0371,0.0059 -0.31445,0.0625 -0.0332,0.0078 -0.0332,0.0098 -0.29297,0.09961 -0.041,0.01367 -0.0371,0.02148 -0.26562,0.140625 -0.0371,0.01953 -0.0352,0.02734 -0.23829,0.18164 -0.0332,0.02344 -0.0273,0.0293 -0.14843,0.154297 -0.10743,-0.121094 -0.0312,-0.0332 -0.0352,-0.0293 -0.22851,-0.181641 -0.0332,-0.02539 -0.0352,-0.02148 -0.25781,-0.146484 -0.0371,-0.01953 -0.041,-0.01563 -0.28516,-0.105469 -0.0352,-0.01367 -0.0391,-0.0078 -0.3125,-0.06641 -0.0371,-0.0078 -0.0391,-0.002 -0.33789,-0.02148 -0.0293,-0.002 h -0.0312 z m 14.32031,0 -0.0312,0.002 -0.0293,0.0059 -0.28711,0.04883 -0.0332,0.0059 -0.0293,0.0078 -0.26953,0.08008 -0.0352,0.01172 -0.0352,0.01562 -0.24804,0.113282 -0.0293,0.01172 -0.006,0.0039 v -0.248047 h -0.5293 -1.88281 -0.5293 v 0.529297 5.726562 0.529297 h 0.5293 1.88281 0.5293 v -0.529297 -2.984375 l 0.0254,-0.134765 0.0449,-0.128907 0.0566,-0.09961 0.0742,-0.08789 0.0684,-0.05664 0.0918,-0.04883 0.11328,-0.0332 0.11914,-0.01172 0.11914,0.0098 0.084,0.02344 0.0644,0.03516 0.0508,0.04297 0.0469,0.06445 0.0371,0.07813 0.0293,0.117188 0.0117,0.160156 v 3.054687 0.529297 h 0.5293 1.87304 0.5293 v -0.529297 -1.6875 l 0.0723,0.181641 0.01,0.02344 0.0117,0.02148 0.11719,0.226562 0.0137,0.02539 0.0137,0.02148 0.13671,0.208985 0.0137,0.02148 0.0156,0.01953 0.15235,0.191407 0.0176,0.02148 0.0195,0.01953 0.16992,0.171875 0.0215,0.02344 0.0234,0.01758 0.0742,0.05859 -0.14062,0.279296 -0.6543,1.302735 -0.21875,0.4375 0.41601,0.253906 0.25391,0.154297 0.0176,0.0098 0.0176,0.0098 0.27734,0.140625 0.0176,0.0078 0.0176,0.0078 0.29688,0.125 0.0156,0.0059 0.0156,0.0059 0.31641,0.109375 0.0195,0.0059 0.0195,0.0059 0.33398,0.08789 0.0176,0.0039 0.0176,0.0039 0.34766,0.06641 0.0195,0.0039 0.0176,0.002 0.36132,0.04297 0.0215,0.002 0.0215,0.002 0.37305,0.01367 h 0.0195 0.0176 l 0.33984,-0.01172 0.0195,-0.002 0.0195,-0.002 0.32619,-0.03553 0.0195,-0.002 0.0195,-0.0039 0.30859,-0.05664 0.0215,-0.0039 0.0215,-0.0059 0.29297,-0.08008 0.0234,-0.0059 0.0215,-0.0078 0.27539,-0.101562 0.0215,-0.0078 0.0215,-0.0098 0.25586,-0.121094 0.0234,-0.01172 0.0234,-0.01367 0.23633,-0.142578 0.0234,-0.01367 0.0215,-0.01758 0.21485,-0.162109 0.0215,-0.01563 0.0195,-0.01953 0.19335,-0.179688 0.0215,-0.01953 0.0195,-0.02148 0.17188,-0.199218 0.0195,-0.02148 0.0176,-0.02539 0.14844,-0.216797 0.0176,-0.02539 0.0137,-0.0293 0.12109,-0.232422 0.0137,-0.02539 0.0117,-0.02734 0.0977,-0.251953 0.01,-0.02734 0.008,-0.0293 0.0703,-0.265625 0.006,-0.02539 0.006,-0.02539 0.0449,-0.28125 0.004,-0.0293 0.002,-0.03125 0.0137,-0.296875 v -0.01172 -0.01172 -5.21875 -0.529297 h -0.5293 -1.87304 -0.5293 v 0.167969 l -0.20508,-0.08008 -0.0273,-0.01172 -0.0293,-0.0078 -0.23242,-0.0625 -0.0293,-0.0078 -0.0293,-0.0039 -0.24805,-0.03711 -0.0254,-0.0039 -0.0254,-0.002 -0.26367,-0.01367 h -0.0254 -0.0254 l -0.25976,0.01172 -0.0273,0.002 -0.0273,0.0039 -0.25,0.03711 -0.0254,0.0039 -0.0273,0.0059 -0.23829,0.06055 -0.0273,0.0078 -0.0254,0.0098 -0.22656,0.08398 -0.0293,0.0098 -0.0273,0.01563 -0.21094,0.107422 -0.0234,0.01172 -0.0234,0.01367 -0.19726,0.126953 -0.0234,0.01563 -0.0215,0.01758 -0.1836,0.148437 -0.0234,0.01953 -0.0215,0.02148 -0.16601,0.167969 -0.0176,0.01758 -0.0156,0.01953 -0.15039,0.185547 -0.0195,0.02344 -0.0137,0.02344 -0.13281,0.205078 -0.0156,0.02148 -0.0117,0.02344 -0.11524,0.224609 -0.0117,0.02148 -0.008,0.02344 -0.0957,0.238281 -0.01,0.02344 -0.008,0.02344 -0.0195,0.0625 -0.0293,-0.140625 -0.006,-0.02344 -0.006,-0.02344 -0.0645,-0.208984 -0.008,-0.02539 -0.0117,-0.02539 -0.082,-0.19336 -0.008,-0.02148 -0.0117,-0.01953 -0.0957,-0.179688 -0.0137,-0.02539 -0.0156,-0.02539 -0.11328,-0.166016 -0.0176,-0.02344 -0.0176,-0.02148 -0.12891,-0.150391 -0.0195,-0.02344 -0.0215,-0.01953 -0.14453,-0.134766 -0.0215,-0.01953 -0.0215,-0.01758 -0.15625,-0.117187 -0.0234,-0.01563 -0.0234,-0.01563 -0.16992,-0.101563 -0.0254,-0.01367 -0.0254,-0.01172 -0.18359,-0.08398 -0.0254,-0.01172 -0.0273,-0.0098 -0.19727,-0.06641 -0.0234,-0.0078 -0.0234,-0.0059 -0.20703,-0.04883 -0.0254,-0.0059 -0.0254,-0.0039 -0.21875,-0.0293 -0.0234,-0.002 -0.0234,-0.002 -0.22852,-0.0098 h -0.0254 -0.0254 z m -28.990232,0.958984 0.210938,0.03516 0.203125,0.05273 0.230468,0.08594 0.0098,0.0039 0.166016,0.08008 0.0078,0.0039 0.205078,0.121094 0.189453,0.136719 0.1875,0.164062 0.332032,0.289063 h -0.638672 -0.529297 v 0.529297 1.470703 l -0.07227,0.06055 -0.132812,0.08789 -0.109375,0.05859 -0.150391,0.05859 -0.134766,0.03906 -0.154296,0.02734 -0.109375,0.0078 -0.171875,-0.0098 -0.15625,-0.02539 -0.125,-0.0332 -0.119141,-0.04492 -0.146484,-0.07813 -0.01172,-0.0059 -0.09961,-0.06641 -0.101562,-0.08203 -0.123047,-0.123047 -0.0059,-0.0059 -0.07031,-0.08594 -0.08984,-0.136719 -0.07813,-0.144531 -0.0059,-0.01172 -0.04883,-0.121094 -0.05273,-0.162109 -0.03906,-0.169922 -0.02344,-0.179688 -0.0078,-0.183593 0.0098,-0.19336 0.01758,-0.134765 0.002,-0.0098 0.04297,-0.181641 0.05469,-0.160156 0.06055,-0.132812 0.07813,-0.136719 0.08789,-0.123047 0.105468,-0.119141 0.08984,-0.08594 0.0098,-0.0078 0.130859,-0.101562 0.134766,-0.08398 0.111328,-0.05469 0.162109,-0.05859 0.138672,-0.03711 0.15625,-0.02148 0.1875,-0.01172 z m 35.269532,1.53125 0.11523,0.03711 0.0957,0.05664 0.084,0.08008 0.0723,0.09961 0.0625,0.148438 0.0391,0.164062 0.0156,0.208984 -0.0137,0.201172 -0.041,0.167969 -0.0605,0.138672 -0.0762,0.109375 -0.084,0.08008 -0.0918,0.05469 -0.11718,0.03711 -0.14063,0.01367 -0.14648,-0.01367 -0.10742,-0.03516 -0.10157,-0.06055 -0.0859,-0.08008 -0.0723,-0.105469 -0.0625,-0.138672 -0.041,-0.167969 -0.0137,-0.201172 0.0137,-0.205078 0.041,-0.167968 0.0606,-0.136719 0.0742,-0.107422 0.0859,-0.08008 0.10547,-0.0625 0.10352,-0.03516 0.14648,-0.01367 z m -28.406251,0.103516 0.113282,0.0332 0.101562,0.05469 0.0918,0.07813 0.07813,0.0957 0.07031,0.134765 0.05469,0.15625 0.0293,0.181641 v 0.298828 l -0.0293,0.177735 -0.05469,0.154296 -0.07031,0.134766 -0.08008,0.09961 -0.0918,0.07812 -0.101563,0.05469 -0.111328,0.0332 -0.144531,0.01367 -0.167969,-0.01758 -0.123046,-0.03906 -0.109376,-0.06445 -0.09766,-0.08984 -0.08398,-0.121094 -0.06836,-0.15625 -0.04492,-0.185547 -0.01563,-0.222656 0.01563,-0.222657 0.04492,-0.185546 0.07031,-0.15625 0.08008,-0.117188 0.09961,-0.0918 0.109376,-0.06445 0.123046,-0.03906 0.171875,-0.01953 z"
         style="font-style:normal;font-variant:normal;font-weight:bold;font-stretch:normal;font-size:medium;font-family:'Montserrat Alternates';-inkscape-font-specification:'Montserrat Alternates Bold';fill:#55d400;fill-opacity:1;stroke:none;stroke-width:0.26458332" />
      <path
         transform="translate(22.859716,14.338236)"
         d="m 64.271484,48.271484 c -2.328333,0 -4.0625,1.629563 -4.0625,3.820313 0,2.201334 1.607444,3.853518 3.75586,3.853515 0.656167,0 1.322714,-0.243182 1.873047,-0.634765 v 0.496094 h 1.429687 v -3.851563 h -1.671875 v 1.69336 c -0.34925,0.391584 -0.868453,0.644531 -1.408203,0.644531 -1.132416,0 -1.990234,-0.941755 -1.990234,-2.201172 0,-1.23825 0.91037,-2.179688 2.095703,-2.179688 0.687917,0 1.429817,0.318172 1.958984,0.826172 l 1.099609,-1.355469 c -0.772581,-0.677331 -1.958245,-1.111328 -3.080078,-1.111328 z m 32.082032,0 c -2.32834,0 -4.064454,1.629563 -4.064454,3.820313 0,2.201334 1.609393,3.853518 3.757813,3.853515 0.65617,0 1.322717,-0.243182 1.873047,-0.634765 v 0.496094 h 1.427734 v -3.851563 h -1.671875 v 1.69336 c -0.34925,0.391584 -0.868453,0.644531 -1.408203,0.644531 -1.13242,0 -1.988281,-0.941755 -1.988281,-2.201172 0,-1.23825 0.910373,-2.179688 2.095703,-2.179688 0.68792,0 1.427861,0.318172 1.957031,0.826172 l 1.101563,-1.355469 c -0.77259,-0.677331 -1.958248,-1.111328 -3.080078,-1.111328 z m -24.087891,1.736328 c -0.804334,0 -1.450214,0.371177 -1.841797,1.027344 v -0.953125 h -1.884766 v 5.72461 h 1.884766 v -2.919922 c 0.09525,-0.79375 0.794047,-1.26013 1.841797,-1.154297 z m 17.208984,0 c -0.836083,0 -1.492365,0.349694 -1.894531,1.00586 v -0.931641 h -1.884766 v 5.72461 h 1.884766 V 52.78125 c 0.07408,-0.645583 0.486094,-1.081214 1.121094,-1.091797 0.592667,0 0.974609,0.403244 0.974609,1.048828 v 3.06836 h 1.873047 v -3.607422 c 0,-1.344084 -0.825385,-2.191405 -2.074219,-2.191407 z m -13.86914,0.0098 c -1.830917,0.01058 -2.984375,1.196292 -2.984375,2.953125 0,1.74625 1.237761,2.900391 3.089844,2.900391 1.079498,0 1.95825,-0.380897 2.625,-1.164063 l -1.058594,-0.953125 c -0.423334,0.455083 -0.919735,0.699219 -1.427735,0.699219 -0.550334,0 -0.973877,-0.285786 -1.185547,-0.783203 l 3.830079,-0.921875 c -0.04233,-1.693333 -1.174172,-2.741052 -2.888672,-2.730469 z m 6.304687,0 c -1.830916,0.01058 -2.984375,1.196292 -2.984375,2.953125 0,1.74625 1.23776,2.900391 3.089844,2.900391 1.0795,0 1.95825,-0.380897 2.625,-1.164063 l -1.058594,-0.953125 c -0.423333,0.455083 -0.919734,0.699219 -1.427734,0.699219 -0.550333,0 -0.973881,-0.285786 -1.185547,-0.783203 l 3.830078,-0.921875 c -0.04233,-1.693333 -1.174172,-2.741052 -2.888672,-2.730469 z m 21.367184,0 c -1.88383,0 -3.12304,1.165042 -3.12304,2.921875 0,1.767417 1.23921,2.931641 3.12304,2.931641 1.88384,0 3.13086,-1.164224 3.13086,-2.931641 0,-1.756833 -1.24702,-2.921875 -3.13086,-2.921875 z m 6.75782,0 c -1.88383,0 -3.1211,1.165042 -3.1211,2.921875 0,1.767417 1.23727,2.931641 3.1211,2.931641 1.88383,0 3.13281,-1.164224 3.13281,-2.931641 0,-1.756833 -1.24898,-2.921875 -3.13281,-2.921875 z m -34.345707,1.333984 c 0.465666,0 0.815541,0.243954 0.953125,0.751954 l -2.126953,0.529296 c 0.0635,-0.825499 0.496494,-1.281248 1.173828,-1.28125 z m 6.304688,0 c 0.465667,0 0.815542,0.243954 0.953125,0.751954 l -2.126954,0.529296 c 0.0635,-0.825499 0.496496,-1.281248 1.173829,-1.28125 z m 21.283199,0.191407 c 0.74084,0 1.23831,0.5713 1.23828,1.417969 0,0.85725 -0.49744,1.427734 -1.23828,1.427734 -0.73025,0 -1.22851,-0.570484 -1.22851,-1.427734 0,-0.846667 0.49826,-1.417969 1.22851,-1.417969 z m 6.75782,0 c 0.74083,0 1.23828,0.5713 1.23828,1.417969 0,0.85725 -0.49745,1.427734 -1.23828,1.427734 -0.73025,0 -1.22657,-0.570484 -1.22657,-1.427734 0,-0.846667 0.49632,-1.417969 1.22657,-1.417969 z m -22.384769,9.496093 c -0.582084,0 -0.994141,0.413193 -0.994141,1.00586 0,0.582083 0.412057,1.003906 0.994141,1.003906 0.582083,0 0.99414,-0.421823 0.99414,-1.003906 0,-0.592667 -0.412057,-1.005857 -0.99414,-1.00586 z m -23.378907,0.826172 c -2.328333,0 -4.0625,1.629563 -4.0625,3.820313 0,2.201333 1.607444,3.851562 3.75586,3.851562 0.656167,0 1.322714,-0.243181 1.873047,-0.634765 v 0.498047 h 1.429687 v -3.853516 h -1.671875 v 1.693359 c -0.34925,0.391583 -0.868453,0.646485 -1.408203,0.646485 -1.132416,0 -1.990234,-0.941755 -1.990234,-2.201172 0,-1.23825 0.91037,-2.181641 2.095703,-2.181641 0.687917,0 1.429817,0.318172 1.958984,0.826172 l 1.099609,-1.353516 c -0.772581,-0.677331 -1.958245,-1.111328 -3.080078,-1.111328 z m 15.21875,1.734375 c -0.8255,0 -1.471698,0.348875 -1.863281,1.015625 v -0.941406 h -1.873047 v 5.726563 h 1.873047 v -2.826172 c 0,-0.751417 0.423094,-1.280432 1.089844,-1.291016 0.582083,0 0.941406,0.390709 0.941406,1.046875 v 3.070313 h 1.884766 v -2.826172 c 0,-0.751417 0.411375,-1.280432 1.078125,-1.291016 0.582083,0 0.943359,0.390709 0.943359,1.046875 v 3.070313 h 1.882813 v -3.609375 c 0,-1.344083 -0.814485,-2.191407 -2.052735,-2.191407 -0.931333,0 -1.629583,0.434583 -2,1.28125 -0.28575,-0.804334 -0.972964,-1.28125 -1.904297,-1.28125 z m 14.324219,0 c -0.83608,0 -1.492371,0.349693 -1.894531,1.00586 v -0.931641 h -1.882813 v 5.726563 h 1.882813 v -3.027344 c 0.0741,-0.645584 0.488047,-1.07926 1.123047,-1.089844 0.59267,0 0.972656,0.401292 0.972656,1.046875 v 3.070313 h 1.873047 v -3.609375 c 0,-1.344083 -0.825379,-2.191407 -2.074219,-2.191407 z M 70.6875,63.611328 c -1.576917,0 -2.613281,1.152188 -2.613281,2.898438 0,1.778 1.057348,2.964843 2.666015,2.964843 0.709083,0 1.29201,-0.286921 1.683594,-0.794921 v 0.720703 h 1.882813 v -5.726563 h -1.882813 v 0.740234 C 72.021661,63.89548 71.41775,63.600744 70.6875,63.611328 Z m 28.417969,0 c -1.41817,0 -2.402344,1.079151 -2.402344,2.708984 0,1.661583 1.014609,2.761719 2.443359,2.761719 0.70908,0 1.260446,-0.265119 1.630856,-0.751953 v 0.615234 c 0,0.66675 -0.5197,1.09961 -1.376949,1.09961 -0.61383,0 -1.248987,-0.200714 -1.767579,-0.560547 l -0.654296,1.302734 c 0.64558,0.423333 1.555137,0.740235 2.560546,0.740235 1.852088,0 3.111328,-1.015516 3.111328,-2.634766 v -5.21875 h -1.87305 v 0.699219 c -0.381,-0.486834 -0.952211,-0.761719 -1.671871,-0.761719 z m -12.376953,0.0625 v 5.726563 h 1.875 v -5.726563 z m 12.894531,1.355469 c 0.687913,0 1.154293,0.539416 1.154293,1.34375 0,0.783166 -0.46638,1.333984 -1.154293,1.333984 -0.6985,0 -1.164063,-0.550818 -1.164063,-1.333984 0,-0.79375 0.465563,-1.34375 1.164063,-1.34375 z m -28.416016,0.105469 c 0.677334,0 1.142713,0.486864 1.216797,1.238281 v 0.380859 c -0.07408,0.740833 -0.539463,1.238282 -1.216797,1.238282 -0.740833,0 -1.238281,-0.583022 -1.238281,-1.429688 0,-0.846667 0.497448,-1.427734 1.238281,-1.427734 z"
         id="path8258"
         style="font-style:normal;font-variant:normal;font-weight:bold;font-stretch:normal;font-size:medium;font-family:'Montserrat Alternates';-inkscape-font-specification:'Montserrat Alternates Bold';fill:#ffffff;fill-opacity:1;stroke:none;stroke-width:0.26458332"
         inkscape:original="M 64.271484 48.271484 C 61.943151 48.271484 60.208984 49.901047 60.208984 52.091797 C 60.208984 54.293131 61.816428 55.945315 63.964844 55.945312 C 64.621011 55.945312 65.287558 55.70213 65.837891 55.310547 L 65.837891 55.806641 L 67.267578 55.806641 L 67.267578 51.955078 L 65.595703 51.955078 L 65.595703 53.648438 C 65.246453 54.040022 64.72725 54.292969 64.1875 54.292969 C 63.055084 54.292969 62.197266 53.351214 62.197266 52.091797 C 62.197266 50.853547 63.107636 49.912109 64.292969 49.912109 C 64.980886 49.912109 65.722786 50.230281 66.251953 50.738281 L 67.351562 49.382812 C 66.578981 48.705481 65.393317 48.271484 64.271484 48.271484 z M 96.353516 48.271484 C 94.025176 48.271484 92.289062 49.901047 92.289062 52.091797 C 92.289062 54.293131 93.898455 55.945315 96.046875 55.945312 C 96.703045 55.945312 97.369592 55.70213 97.919922 55.310547 L 97.919922 55.806641 L 99.347656 55.806641 L 99.347656 51.955078 L 97.675781 51.955078 L 97.675781 53.648438 C 97.326531 54.040022 96.807328 54.292969 96.267578 54.292969 C 95.135158 54.292969 94.279297 53.351214 94.279297 52.091797 C 94.279297 50.853547 95.18967 49.912109 96.375 49.912109 C 97.06292 49.912109 97.802861 50.230281 98.332031 50.738281 L 99.433594 49.382812 C 98.661004 48.705481 97.475346 48.271484 96.353516 48.271484 z M 72.265625 50.007812 C 71.461291 50.007812 70.815411 50.378989 70.423828 51.035156 L 70.423828 50.082031 L 68.539062 50.082031 L 68.539062 55.806641 L 70.423828 55.806641 L 70.423828 52.886719 C 70.519078 52.092969 71.217875 51.626589 72.265625 51.732422 L 72.265625 50.007812 z M 89.474609 50.007812 C 88.638526 50.007812 87.982244 50.357506 87.580078 51.013672 L 87.580078 50.082031 L 85.695312 50.082031 L 85.695312 55.806641 L 87.580078 55.806641 L 87.580078 52.78125 C 87.654158 52.135667 88.066172 51.700036 88.701172 51.689453 C 89.293839 51.689453 89.675781 52.092697 89.675781 52.738281 L 89.675781 55.806641 L 91.548828 55.806641 L 91.548828 52.199219 C 91.548828 50.855135 90.723443 50.007814 89.474609 50.007812 z M 75.605469 50.017578 C 73.774552 50.028158 72.621094 51.21387 72.621094 52.970703 C 72.621094 54.716953 73.858855 55.871094 75.710938 55.871094 C 76.790436 55.871094 77.669188 55.490197 78.335938 54.707031 L 77.277344 53.753906 C 76.85401 54.208989 76.357609 54.453125 75.849609 54.453125 C 75.299275 54.453125 74.875732 54.167339 74.664062 53.669922 L 78.494141 52.748047 C 78.451811 51.054714 77.319969 50.006995 75.605469 50.017578 z M 81.910156 50.017578 C 80.07924 50.028158 78.925781 51.21387 78.925781 52.970703 C 78.925781 54.716953 80.163541 55.871094 82.015625 55.871094 C 83.095125 55.871094 83.973875 55.490197 84.640625 54.707031 L 83.582031 53.753906 C 83.158698 54.208989 82.662297 54.453125 82.154297 54.453125 C 81.603964 54.453125 81.180416 54.167339 80.96875 53.669922 L 84.798828 52.748047 C 84.756498 51.054714 83.624656 50.006995 81.910156 50.017578 z M 103.27734 50.017578 C 101.39351 50.017578 100.1543 51.18262 100.1543 52.939453 C 100.1543 54.70687 101.39351 55.871094 103.27734 55.871094 C 105.16118 55.871094 106.4082 54.70687 106.4082 52.939453 C 106.4082 51.18262 105.16118 50.017578 103.27734 50.017578 z M 110.03516 50.017578 C 108.15133 50.017578 106.91406 51.18262 106.91406 52.939453 C 106.91406 54.70687 108.15133 55.871094 110.03516 55.871094 C 111.91899 55.871094 113.16797 54.70687 113.16797 52.939453 C 113.16797 51.18262 111.91899 50.017578 110.03516 50.017578 z M 75.689453 51.351562 C 76.155119 51.351562 76.504994 51.595516 76.642578 52.103516 L 74.515625 52.632812 C 74.579125 51.807313 75.012119 51.351564 75.689453 51.351562 z M 81.994141 51.351562 C 82.459808 51.351562 82.809683 51.595516 82.947266 52.103516 L 80.820312 52.632812 C 80.883814 51.807313 81.316808 51.351564 81.994141 51.351562 z M 103.27734 51.542969 C 104.01818 51.542969 104.51565 52.114269 104.51562 52.960938 C 104.51562 53.818188 104.01818 54.388672 103.27734 54.388672 C 102.54709 54.388672 102.04883 53.818188 102.04883 52.960938 C 102.04883 52.114271 102.54709 51.542969 103.27734 51.542969 z M 110.03516 51.542969 C 110.77599 51.542969 111.27344 52.114269 111.27344 52.960938 C 111.27344 53.818188 110.77599 54.388672 110.03516 54.388672 C 109.30491 54.388672 108.80859 53.818188 108.80859 52.960938 C 108.80859 52.114271 109.30491 51.542969 110.03516 51.542969 z M 87.650391 61.039062 C 87.068307 61.039062 86.65625 61.452255 86.65625 62.044922 C 86.65625 62.627005 87.068307 63.048828 87.650391 63.048828 C 88.232474 63.048828 88.644531 62.627005 88.644531 62.044922 C 88.644531 61.452255 88.232474 61.039065 87.650391 61.039062 z M 64.271484 61.865234 C 61.943151 61.865234 60.208984 63.494797 60.208984 65.685547 C 60.208984 67.88688 61.816428 69.537109 63.964844 69.537109 C 64.621011 69.537109 65.287558 69.293928 65.837891 68.902344 L 65.837891 69.400391 L 67.267578 69.400391 L 67.267578 65.546875 L 65.595703 65.546875 L 65.595703 67.240234 C 65.246453 67.631817 64.72725 67.886719 64.1875 67.886719 C 63.055084 67.886719 62.197266 66.944964 62.197266 65.685547 C 62.197266 64.447297 63.107636 63.503906 64.292969 63.503906 C 64.980886 63.503906 65.722786 63.822078 66.251953 64.330078 L 67.351562 62.976562 C 66.578981 62.299231 65.393317 61.865234 64.271484 61.865234 z M 79.490234 63.599609 C 78.664734 63.599609 78.018536 63.948484 77.626953 64.615234 L 77.626953 63.673828 L 75.753906 63.673828 L 75.753906 69.400391 L 77.626953 69.400391 L 77.626953 66.574219 C 77.626953 65.822802 78.050047 65.293787 78.716797 65.283203 C 79.29888 65.283203 79.658203 65.673912 79.658203 66.330078 L 79.658203 69.400391 L 81.542969 69.400391 L 81.542969 66.574219 C 81.542969 65.822802 81.954344 65.293787 82.621094 65.283203 C 83.203177 65.283203 83.564453 65.673912 83.564453 66.330078 L 83.564453 69.400391 L 85.447266 69.400391 L 85.447266 65.791016 C 85.447266 64.446933 84.632781 63.599609 83.394531 63.599609 C 82.463198 63.599609 81.764948 64.034192 81.394531 64.880859 C 81.108781 64.076525 80.421567 63.599609 79.490234 63.599609 z M 93.814453 63.599609 C 92.978373 63.599609 92.322082 63.949302 91.919922 64.605469 L 91.919922 63.673828 L 90.037109 63.673828 L 90.037109 69.400391 L 91.919922 69.400391 L 91.919922 66.373047 C 91.994022 65.727463 92.407969 65.293787 93.042969 65.283203 C 93.635639 65.283203 94.015625 65.684495 94.015625 66.330078 L 94.015625 69.400391 L 95.888672 69.400391 L 95.888672 65.791016 C 95.888672 64.446933 95.063293 63.599609 93.814453 63.599609 z M 70.6875 63.611328 C 69.110583 63.611328 68.074219 64.763516 68.074219 66.509766 C 68.074219 68.287766 69.131567 69.474609 70.740234 69.474609 C 71.449317 69.474609 72.032244 69.187688 72.423828 68.679688 L 72.423828 69.400391 L 74.306641 69.400391 L 74.306641 63.673828 L 72.423828 63.673828 L 72.423828 64.414062 C 72.021661 63.89548 71.41775 63.600744 70.6875 63.611328 z M 99.105469 63.611328 C 97.687299 63.611328 96.703125 64.690479 96.703125 66.320312 C 96.703125 67.981895 97.717734 69.082031 99.146484 69.082031 C 99.855564 69.082031 100.40693 68.816912 100.77734 68.330078 L 100.77734 68.945312 C 100.77734 69.612062 100.25764 70.044922 99.400391 70.044922 C 98.786561 70.044922 98.151404 69.844208 97.632812 69.484375 L 96.978516 70.787109 C 97.624096 71.210442 98.533653 71.527344 99.539062 71.527344 C 101.39115 71.527344 102.65039 70.511828 102.65039 68.892578 L 102.65039 63.673828 L 100.77734 63.673828 L 100.77734 64.373047 C 100.39634 63.886213 99.825129 63.611328 99.105469 63.611328 z M 86.728516 63.673828 L 86.728516 69.400391 L 88.603516 69.400391 L 88.603516 63.673828 L 86.728516 63.673828 z M 99.623047 65.029297 C 100.31096 65.029297 100.77734 65.568713 100.77734 66.373047 C 100.77734 67.156213 100.31096 67.707031 99.623047 67.707031 C 98.924547 67.707031 98.458984 67.156213 98.458984 66.373047 C 98.458984 65.579297 98.924547 65.029297 99.623047 65.029297 z M 71.207031 65.134766 C 71.884365 65.134766 72.349744 65.62163 72.423828 66.373047 L 72.423828 66.753906 C 72.349748 67.494739 71.884365 67.992188 71.207031 67.992188 C 70.466198 67.992188 69.96875 67.409166 69.96875 66.5625 C 69.96875 65.715833 70.466198 65.134766 71.207031 65.134766 z "
         inkscape:radius="0"
         sodipodi:type="inkscape:offset" />
    </g>
    <text
       xml:space="preserve"
       style="font-style:normal;font-variant:normal;font-weight:normal;font-stretch:normal;font-size:6.82784653px;font-family:Comfortaa;-inkscape-font-specification:Comfortaa;fill:#000000;fill-opacity:1;stroke:none;stroke-width:0.17069617"
       x="115.22054"
       y="91.993385"
       id="text8323"
       inkscape:export-xdpi="82.756561"
       inkscape:export-ydpi="82.756561"><tspan
         sodipodi:role="line"
         id="tspan8321"
         x="115.22054"
         y="91.993385"
         style="font-style:normal;font-variant:normal;font-weight:300;font-stretch:normal;font-family:Comfortaa;-inkscape-font-specification:'Comfortaa Light';stroke-width:0.17069617">Beta</tspan></text>
  </g>
</svg>
